<svg version="1.2" xmlns="http://www.w3.org/2000/svg" viewBox="0 0 246 91" width="246" height="91">
	<title>banco-nacion-logo</title>
	<style>
		.s0 { fill: #ffffff } 
	</style>
	<g>
		<path class="s0" d="m47.1 0.9c-24 0-43.6 19.6-43.6 43.6 0 24.1 19.6 43.6 43.6 43.6 24 0 43.6-19.5 43.6-43.6 0-24-19.6-43.6-43.6-43.6zm24.6 68.9q-0.1 0.2-0.2 0.2h-48.8q-0.2 0-0.2-0.2v-4.9q0-0.1 0.2-0.1h48.8q0.1 0 0.2 0.1v4.9zm-33-12.8v-24.8h5.7v24.8h5.4v-24.8h5.6v24.8h5.6v-24.8h5.6v24.8h2.5v5q0 0.1-0.1 0.1h-43.8q-0.1 0-0.1-0.1v-5h2.5v-24.8h5.6v24.8h5.6zm34.5-30l-1.5 2.7c-0.1 0.1-0.2 0.2-0.3 0.2h-48.8c-0.1 0-0.2-0.1-0.2-0.2l-1.6-2.7c0-0.1 0-0.2 0.1-0.3l26-13.8c0 0 0.2 0 0.3 0l25.9 13.8c0.1 0.1 0.1 0.2 0.1 0.3z"/>
		<path class="s0" d="m59.7 25.1l-12.3-5.9c-0.1-0.1-0.2-0.1-0.2-0.2-0.1 0-0.2 0-0.3 0.1l-12.4 6q-0.1 0.1 0.1 0.1h25q0.2 0 0.1-0.1z"/>
		<path class="s0" d="m113.2 65.3q0.8-0.2 2.3-0.4 1.6-0.2 3-0.2v-34.3q-1.4 0-3-0.2-1.5-0.2-2.3-0.4v-4.6h19.2q3.1 0 5.8 0.5 2.8 0.6 4.9 1.9 2.1 1.3 3.2 3.4 1.2 2.2 1.2 5.2 0 4.3-2.2 6.7-2.3 2.5-5.9 3.5v0.1q2 0.3 3.8 1.2 1.9 0.8 3.3 2.2 1.3 1.3 2.2 3.2 0.8 1.8 0.8 4.2 0 3.4-1.3 5.8-1.3 2.4-3.6 3.9-2.2 1.5-5.4 2.2-3.1 0.7-7 0.7h-19v-4.6c0 0 0 0 0 0zm12.8-21.2h5.4q4.5 0 6.5-1.7 2-1.7 2-5.1 0-6.6-8.3-6.6h-5.6v13.4zm0 20.3h5.9q5 0 7.4-1.8 2.3-1.7 2.4-5.5 0-3.7-2.2-5.7-2.2-2-7.2-2h-6.3c0 0 0 15 0 15z"/>
		<path class="s0" d="m152.4 65.3q0.7-0.2 2.3-0.4 1.6-0.2 3-0.2v-34.3q-1.4 0-3-0.2-1.6-0.2-2.3-0.4v-4.6h12.4l19.1 26.6q1.6 2.3 2.9 4.3 1.4 2 1.7 2.7h0.1q0-0.6-0.1-2.4-0.1-1.7-0.1-4.2v-21.8q-1.4 0-2.9-0.2-1.6-0.2-2.3-0.4v-4.6h16.9v4.6q-0.7 0.2-2.2 0.4-1.6 0.2-2.9 0.2v39.5h-6.6l-20.1-28.1q-0.8-1.1-1.5-2.1-0.7-1-1.2-1.9-0.6-0.9-1-1.6-0.4-0.7-0.5-1h-0.1q0.1 0.7 0.2 2.4 0 1.7 0 3.3v23.8q1.4 0.1 2.9 0.2 1.6 0.2 2.4 0.4v4.6h-17.1v-4.6q0 0 0 0z"/>
		<path class="s0" d="m199.1 65.3q0.5-0.2 1.7-0.3 1.2-0.2 2.3-0.3l15.6-39.5h7l15.1 39.5q1.3 0.1 2.5 0.3 1.2 0.1 1.7 0.3v4.7h-16.3v-4.7q0.6-0.2 1.7-0.3 1.2-0.2 2.4-0.3l-2.6-7.2h-17.4l-2.7 7.2q1.2 0.1 2.4 0.3 1.1 0.1 1.7 0.3v4.7h-15.1v-4.7zm29.1-13.1l-3.9-11q-1-2.8-1.7-4.7-0.6-2-1-3.3h-0.1q-0.5 1.4-1.2 3.4-0.6 2-1.6 4.6l-4.1 11h13.6z"/>
	</g>
</svg>