<?xml version="1.0" encoding="utf-8"?>
<!-- Generator: Adobe Illustrator 24.0.0, SVG Export Plug-In . SVG Version: 6.00 Build 0)  -->
<svg version="1.1" id="Layer_1" xmlns="http://www.w3.org/2000/svg" xmlns:xlink="http://www.w3.org/1999/xlink" x="0px" y="0px"
	 viewBox="0 0 850.4 186.7" style="enable-background:new 0 0 850.4 186.7;" xml:space="preserve">
<style type="text/css">
	.st0{fill:#005BAA;}
	.st1{fill:#00AEEF;}
</style>
<path class="st0" d="M332.4,61c-5.9,0-11.1,2.3-15.9,6.3H316v-5.4h-12.2v60.5h12.8V75.6c3.8-2.6,8.9-3.8,10.9-3.8
	c5.6,0,7.6,2.8,7.6,8.6v41.9h12.8V76.7C347.8,67,342.7,61,332.4,61z"/>
<path class="st0" d="M373.5,92.6v-1c0-10.6,2-20,12.8-20c4.2,0,9.2,0.9,12.7,2.5V63.5c-3.8-1.6-9.4-2.6-13.8-2.6
	c-17.5,0-24.8,12.4-24.8,29.6v3c0,16.5,6.6,29.7,24.2,29.7c5.3,0,10.9-1.7,14.9-4.5v-9.7c-3.9,1.8-8.3,3.5-13.6,3.5
	C375.5,112.6,373.5,103.1,373.5,92.6z"/>
<path class="st0" d="M220.4,80.5V80c7.5-2.6,10.2-9.6,10.2-17.9c0-13.1-8-20-24-20H181v80.3h25.8c14.5,0,26.3-5.8,26.3-22.5
	C233.1,89.4,229,83.5,220.4,80.5z M194.6,52.7h10.8c7.1,0,11,3.9,11,11.7c0,7.2-3,12.1-11,12.1h-10.8V52.7z M206.4,111.7h-11.8V85.9
	h11.8c8,0,12.5,4.6,12.5,12.4C218.9,106.5,215.4,111.7,206.4,111.7z"/>
<path class="st0" d="M266.9,61c-6.5,0-13,1.2-18.5,3v9.7c4.4-1.1,9.1-2.1,13.7-2.1c6.7,0,13,2,13,9.7V86l-13.8,1.3
	c-10.7,1.2-17.7,6.6-17.7,18.7c0,10.7,5.9,17.3,16.7,17.3c5.5,0,12-2.6,15.4-5.9h0.6l1.1,4.9H288V79C288,66.5,279.3,61,266.9,61z
	 M275.1,110.1c-2.1,1.8-7.4,3.4-10.4,3.4c-5.5,0-8.1-2.8-8.1-8.3c0-5.7,2.8-8.9,8.5-9.6l10-0.9V110.1z"/>
<path class="st0" d="M646.3,37.1v27.5c-2.7-2-7.7-3.7-12.2-3.7c-16.6,0-23,13.1-23,29.6v3c0,12.9,4.5,29.7,20.5,29.7
	c6.1,0,11-2.6,14.9-6.3h0.6l1.2,5.3h10.8V37.1H646.3z M646.3,109c-2,1.9-6.5,3.6-9.7,3.6c-10.2,0-12.5-9.7-12.5-19.9v-1.1
	c0-10.2,3.1-20,13.4-20c2.8,0,6.5,0.8,8.8,2V109z"/>
<path class="st0" d="M692.9,61c-6.5,0-13,1.2-18.5,3v9.7c4.4-1.1,9.1-2.1,13.7-2.1c6.7,0,13,2,13,9.7V86l-13.8,1.3
	c-10.7,1.2-17.7,6.6-17.7,18.7c0,10.7,5.9,17.3,16.7,17.3c5.5,0,12-2.6,15.4-5.9h0.6l1.1,4.9H714V79C714,66.5,705.2,61,692.9,61z
	 M690.7,113.5c-5.5,0-8.1-2.8-8.1-8.3c0-5.7,2.8-8.9,8.5-9.6l10-0.9v15.4h0C699,111.9,693.7,113.5,690.7,113.5z"/>
<path class="st0" d="M585.7,108.6c-3.8,2.6-8.3,3.8-10.3,3.8c-5.6,0-7.6-2.8-7.6-8.6V61.8H555v45.6c0,9.7,5.2,15.8,15.5,15.8
	c5.9,0,10.5-2.3,15.4-6.3h0.4v5.4h12.2V61.8h-12.8V108.6z"/>
<path class="st0" d="M431.4,61c-17.3,0-24.9,12.4-24.9,29.6v3c0,17.2,7.6,29.7,24.9,29.7c17.3,0,24.9-12.6,24.9-29.9v-2.9
	C456.3,73.4,448.6,61,431.4,61z M443,92.8c0,10.1-1.9,19.8-11.7,19.8c-9.8,0-12-9.8-12-19.9v-1.2c0-10.1,2.1-19.9,11.9-19.9
	c9.8,0,11.8,9.8,11.8,19.9V92.8z"/>
<path class="st0" d="M761.8,37.1v27.5c-2.7-2-7.7-3.7-12.2-3.7c-16.6,0-23,13.1-23,29.6v3c0,12.9,4.5,29.7,20.5,29.7
	c6.1,0,11-2.6,14.9-6.3h0.6l1.2,5.3h10.8V37.1H761.8z M761.8,109c-2,1.9-6.5,3.6-9.7,3.6c-10.2,0-12.5-9.7-12.5-19.9v-1.1
	c0-10.2,3.1-20,13.4-20c2.8,0,6.5,0.8,8.8,2V109z"/>
<path class="st0" d="M482.8,82.5v-1.3c0-14.1,3.6-29.3,17.7-29.3c5.3,0,10.3,0.7,14.8,2.5V43.2c-4.9-2-10.8-2.6-16.3-2.6
	c-21.8,0-30.9,16.4-30.9,39.2v4c0,21.9,8.2,39.5,30.2,39.5c6.6,0,12.5-1.7,17.5-5.4v-10.5c-4.8,2.3-9.2,4-15.8,4
	C485.9,111.5,482.8,96.6,482.8,82.5z"/>
<rect x="526.6" y="39.9" class="st0" width="12.9" height="12"/>
<rect x="526.6" y="61.8" class="st0" width="12.8" height="60.5"/>
<path class="st0" d="M95.6,92.6c-10.4,13.3-31,36.4-45.4,52.4c9.1,10.7,22.7,16.8,41.1,16.8c41.1,0,57.5-30.7,57.5-71.8
	c0-20.6-3.8-38.5-13.4-51.3C123.2,56.3,105.6,79.8,95.6,92.6z"/>
<path class="st1" d="M132,34.4c-9.1-10.4-22.7-16.5-40.8-16.5C50,17.9,33.7,48.8,33.7,90c0,20.5,4.2,38,13.3,51
	c12.2-17.6,29.9-42,40.3-54.8C96.4,74.5,117.1,50.8,132,34.4z"/>
</svg>
