<svg version="1.2" xmlns="http://www.w3.org/2000/svg" viewBox="0 0 336 150" width="336" height="150">
	<title>cuotasimple-logo</title>
	<style>
		.s0 { opacity: .93;fill: #fefefe } 
	</style>
	<path id="Path 0" fill-rule="evenodd" class="s0" d="m95.8 35.5c2.8 0.3 6.9 1.3 9 2.4 2 1 5.5 3.8 7.7 6.3 2.4 2.7 4.6 6.4 5.4 9.4 0.9 3.2 1.2 6.8 0.8 10.4-0.4 3-1.8 7.3-3.1 9.5-1.3 2.2-4.5 6-11.6 13l-22.9-23-4.8 4.6c-2.6 2.5-6.6 5.2-8.8 5.9-2.2 0.7-5.6 1-7.5 0.6-1.9-0.3-5-1.5-6.7-2.6-1.8-1.1-3.3-2.3-3.3-2.8 0-0.4 6.6-7.4 14.7-15.5 12.7-12.7 15.6-15.1 20.3-16.8 4-1.4 7-1.8 10.8-1.4zm149.4 0.5c3.7 0 3.8 0.1 3.8 3.5 0 3.3 0.2 3.5 3.5 3.5 3.3 0 3.5 0.2 3.5 3.5 0 3.3-0.2 3.5-7 3.5v6.3c-0.1 4.4 0.4 6.6 1.5 7.5 0.8 0.6 2.5 1.1 3.7 1 1.6-0.2 2.5 0.4 3.3 2.5 0.8 2.2 0.7 3-0.5 3.7-0.8 0.6-3.4 1-5.8 1-2.3 0-5.1-0.5-6.2-1-1.1-0.5-2.7-2.6-3.5-4.5-0.8-1.9-1.5-6.4-1.5-10 0-5.8-0.2-6.5-2-6.5-1.6 0-2-0.7-2-3.5 0-2.8 0.4-3.5 2-3.5 1.6 0 2-0.6 1.8-2.8-0.1-1.6 0.2-3.2 0.7-3.5 0.5-0.4 2.6-0.7 4.7-0.7zm-190.7 1c0.5 0 3.2 2.2 11 10l-9.7 9.8c-5.4 5.3-9.8 10.5-9.8 11.4 0 1-0.3 1.8-0.8 1.8-0.4 0-3.4-2.7-12.7-12l10.5-10.5c5.7-5.8 10.9-10.5 11.5-10.5zm99.2 5c1.8 0 4.8 0.6 6.5 1.4 1.8 0.7 4.2 2.3 7.3 5.8l-2.5 1.9c-1.4 1-3.1 1.9-3.8 1.9-0.6 0-1.9-0.7-2.7-1.5-0.8-0.8-2.9-1.5-4.5-1.5-1.7 0-3.9 0.9-5 2-1.2 1.2-2 3.3-2 5.5 0 2.7 0.7 4 2.7 5.5 1.6 1.2 3.5 2.1 4.3 2.1 0.8 0 2.7-0.9 4.2-2.1 2.7-1.9 2.9-1.9 5.8-0.3 1.7 1 3 2 3 2.3 0 0.3-0.9 1.5-2 2.7-1.1 1.3-3.1 2.8-4.5 3.3-1.4 0.5-4.6 1-7.3 1-2.9 0-5.9-0.7-8-2-1.7-1.1-4.1-3.5-5.2-5.3-1.2-1.9-2-5-2-7.7 0-2.7 0.8-5.8 2-7.8 1.1-1.8 3.9-4.1 6.2-5.2 2.4-1.1 5.8-2 7.5-2zm65.3 0.1c1.9 0 5.4 0.8 7.7 1.9 2.4 1.1 5.2 3.5 6.4 5.2 1.5 2.6 1.9 4.6 1.7 9-0.2 4.4-0.9 6.2-2.8 8.3-1.4 1.5-3.7 3.3-5.3 4.1-1.5 0.8-4.7 1.4-7.2 1.4-2.5 0-6.1-0.8-8.1-1.8-2.1-0.9-4.5-2.8-5.5-4.2-0.9-1.4-2-3.9-2.4-5.5-0.4-1.6-0.5-4.5-0.1-6.3 0.3-1.7 1.7-4.6 2.9-6.3 1.3-1.8 3.9-3.8 5.8-4.5 1.9-0.7 5-1.3 6.9-1.3zm-6.5 15.5c0 1.8 0.7 4 1.5 4.8 0.8 0.8 2.6 1.8 4 2.1 1.7 0.4 3.4 0 5.2-1.4 2.1-1.5 2.8-3 2.8-5.4 0-1.7-0.7-4.2-1.5-5.5-1.1-1.5-2.5-2.2-4.9-2.2-2.1 0-4 0.8-5.2 2.1-1.1 1.2-1.9 3.6-1.9 5.5zm62-15.2c2.7 0.2 6.1 1 7.5 1.9 1.4 0.8 3.1 2.7 3.7 4.1 0.8 1.6 1.3 6.7 1.3 23.6h-4c-2.2 0-4.1-0.5-4.3-1.1-0.1-0.9-0.8-0.9-2.5 0-1.2 0.6-4.1 1.1-6.5 1.1-2.6 0.1-5.1-0.6-6.7-1.8-1.4-1-2.9-3.2-3.3-4.8-0.5-1.7-0.4-3.9 0.3-5.4 0.5-1.4 2-3.1 3.3-3.9 1.2-0.8 5-1.7 8.5-2 3.4-0.3 6.2-0.8 6.3-1.1 0-0.3-0.6-1.1-1.3-1.8-0.8-0.8-3-1.1-5.8-0.9-2.5 0.2-5.2 0.7-6 1-1 0.5-2.1-0.3-3.3-2.3-1.3-2.3-1.4-3.2-0.5-3.9 0.7-0.5 2.9-1.4 4.8-2 1.9-0.6 5.7-0.9 8.5-0.7zm-5.9 21.3c0.6 1 2.2 2 3.5 2.1 1.3 0.2 3.2-0.3 4.1-1.2 1-0.9 1.8-2.3 1.8-3.1 0-1.1-1.1-1.5-3.8-1.5-2 0-4.4 0.5-5.2 1-1.2 0.7-1.2 1.3-0.4 2.7zm-98.8-20.7h9.2v9.2q0 9.3 1.2 10.6c0.7 0.7 2.8 1.2 4.5 1.2 2.3 0 3.6-0.6 4.3-2 0.5-1.1 1-5.8 1-19h9v29h-4c-2.9 0-4-0.4-4-1.5 0-1.3-0.3-1.3-2.3 0-1.2 0.8-4.3 1.5-7 1.5-3.8 0-5.3-0.6-11.2-5.8zm-144.9 23c0.3 0 11.7 11.1 50 49.5l-2.2 2.2c-1.2 1.3-3.1 2.3-4.2 2.3-1.3 0-10.7-8.7-25.3-23.3-12.8-12.8-23.3-23.9-23.4-24.7-0.1-0.8 0.9-2.4 2.2-3.7 1.3-1.3 2.6-2.3 2.9-2.3zm56 4c0.3 0 5 4.4 20.1 19.5l-18.5 18.5-15.3-15.3c-8.4-8.4-15.2-15.6-15.2-16 0-0.4 1.9 0 4.2 0.9 2.8 1 5.8 1.3 8.5 1 2.4-0.4 6-1.5 8-2.5 2.1-1.1 4.6-2.9 5.7-4 1-1.2 2.1-2.1 2.5-2.1zm91.7 6c1.9 0 4.1 0.6 4.9 1.5 0.8 0.8 1.5 2.5 1.5 3.7-0.1 1.3-0.9 3.1-1.8 4.1-0.9 0.9-3.1 1.7-4.7 1.7-1.7-0.1-3.8-0.9-4.8-1.8-1-1-1.9-2.6-1.9-3.7-0.1-1 0.6-2.7 1.6-3.7 1.1-1 3.3-1.8 5.2-1.8zm100.4 3h10v40h-10zm-119 10.4c3 0.1 6.5 0.8 7.7 1.4 2.2 1.2 2.3 1.2 0.5 4.7-1.4 2.8-2.1 3.4-3.7 2.8-1.1-0.4-3.8-0.8-5.9-0.8-2.2 0-4.1 0.4-4.3 1-0.2 0.5 1.8 1.4 4.4 1.8 2.6 0.5 6 1.5 7.5 2.3 1.5 0.7 3.2 2.5 3.8 3.9 0.5 1.3 1 3.1 1 4 0 0.8-1.5 3-3.3 4.8-2.3 2.4-4.5 3.6-7.7 4.1-2.5 0.3-6.8 0.2-9.5-0.4-2.8-0.6-5.6-1.4-6.3-1.8-1-0.6-0.9-1.5 1.8-8.2l4.7 1.5c2.6 0.9 5.8 1.3 7 1 1.3-0.3 2.3-1 2.3-1.5 0-0.6-1.7-1.3-3.8-1.6-2-0.3-5.2-1-7-1.5-1.8-0.5-3.7-1.8-4.2-2.9-0.6-1.1-1-3.5-1-5.3-0.1-2.1 0.7-4 2.2-5.5 1.3-1.2 3.6-2.7 5.3-3.2 1.6-0.5 5.5-0.8 8.5-0.6zm47-0.4c1.4 0 4.1 0.7 6 1.7 3.3 1.7 3.6 1.7 7 0 2.4-1.3 4.8-1.7 8-1.3 3.1 0.3 5.3 1.3 7 3 2.3 2.5 2.5 3.3 3 26.6h-11v-9.5c0-8-0.3-9.7-1.8-10.5-1.2-0.7-2.4-0.5-4 0.5-2 1.3-2.2 2.2-2.2 19.5h-11v-8.5c0-4.7-0.2-9.2-0.5-10-0.3-0.9-1.7-1.5-3.5-1.5-2.3 0-3.3 0.6-4 2.5-0.6 1.3-1 5.8-1 17.5h-11v-29h5.5c3 0 5.4 0.4 5.4 0.9-0.1 0.5 1.1 0.3 2.7-0.5 1.6-0.8 4-1.4 5.4-1.4zm54.4 0c1.7 0 4.7 0.8 6.6 1.8 1.9 1.1 4.4 3.4 5.5 5.3 1.2 2.1 1.9 5.2 2 8.5 0 3.7-0.6 6-2 7.9-1.1 1.5-3.1 3.6-4.5 4.7-1.4 1-4.3 2-6.5 2.1-2.2 0.1-5-0.2-6.3-0.6-2.1-0.7-2.2-0.5-2.2 10.3h-11v-39l6.9 0.2c3.8 0.1 7.2-0.1 7.7-0.5 0.4-0.4 2.1-0.7 3.8-0.7zm-7.5 12.6c-0.6 1.5-0.6 3.4 0.1 5.4 0.5 1.6 1.9 3.2 3 3.5 1.1 0.2 2.9 0.2 4 0 1.1-0.3 2.4-1.7 3-3 0.5-1.4 1-3.2 1-4 0-0.9-0.9-2.4-2-3.5-1.1-1.1-2.8-2-3.8-2-0.9 0.1-2.3 0.4-3 0.7-0.7 0.2-1.7 1.6-2.3 2.9zm54.6-12.5c1.6-0.1 4.9 0.8 7.2 1.9 2.4 1.1 5 3.2 6 4.7 0.9 1.5 1.9 4.7 2.8 11.3l-22-0.1 2 2.1c1.1 1.1 3.2 2 4.7 2 1.5 0 3.8-0.5 5-1.1 1.9-0.9 2.7-0.7 5 1.7 2.7 2.7 2.7 2.9 1 4.6-0.9 1-3.7 2.3-6.2 2.8-2.5 0.6-6.1 0.7-8 0.4-1.9-0.4-4.8-1.3-6.3-2.1-1.5-0.7-3.6-2.6-4.8-4.1-1.1-1.5-2.3-4.3-2.6-6.2-0.3-2-0.1-5.1 0.5-7 0.6-2 2.3-4.8 3.9-6.3 1.5-1.5 4.1-3.1 5.8-3.6 1.6-0.5 4.3-1 6-1zm-0.8 11.9c2.9 0 5.3-0.4 5.3-0.8 0-0.4-0.6-1.3-1.3-2-0.7-0.7-2.2-1.3-3.3-1.2-1.2 0-3 0.9-4 2-1.9 2-1.9 2 3.3 2zm-134.7-11h11v29h-11z"/>
</svg>