<svg version="1.2" xmlns="http://www.w3.org/2000/svg" viewBox="0 0 180 47" width="689" height="180">
	<title>logo-810418616-1731438736-7b6920ff653fd2214af40085c6145fea1731438737-320-0</title>
	<style>
		.s0 { fill: #ffffff } 
		.s1 { opacity: .99;fill: #868689 } 
		.s2 { opacity: 1;fill: #e5e5e6 } 
		.s3 { opacity: .52;fill: #dcdcdd } 
	</style>
	<path id="Path 0" fill-rule="evenodd" class="s0" d="m72 10v3.5c0 1.9-0.3 3.5-0.8 3.5-0.4 0-1.3-0.9-1.9-2-0.8-1.3-2.4-2-4.3-2-1.7 0-3.2 0.3-3.4 0.8-0.2 0.4-0.6 2.2-1 4-0.3 1.9-0.2 3.2 0.4 3.2 0.5 0 1.9-0.9 3-2 1.1-1.1 2.2-2 2.5-2 0.3 0 0.5 0.6 0.5 1.2 0 0.7-0.5 3-1 5-0.6 2.1-1.5 3.8-2 3.8-0.5 0-1.2-0.9-1.5-2-0.3-1.1-1.2-2-2-2-0.9 0-1.9 1.6-2.5 4-0.5 2.2-0.8 4.5-0.5 5 0.3 0.5 1.9 1 3.5 1q3 0 6-3c2.4-2.4 3-2.6 3-1.3 0 1-0.2 2.8-0.5 4-0.5 2.2-0.9 2.3-10.5 2.3-5.5 0-10-0.3-10-0.7 0-0.5 0.4-1.3 0.9-1.8 0.5-0.5 2.1-5.2 3.5-10.3 2.6-9.1 2.6-9.2 0.6-9.7-1.1-0.3-2-1-2-1.5 0-0.6 4-1 20-1zm5 0c2.5 0 4 0.5 4 1.3 0 0.6-1.2 5-2.5 9.7-1.4 4.7-2.5 9.2-2.5 10 0.1 1.2 0.3 1.2 1.3-0.2 0.7-1 1.5-1.7 1.9-1.8 0.5 0 0.2 1.2-0.6 2.8-0.7 1.5-2.1 3-3 3.5-0.9 0.4-2.3 0.5-3.1 0.2-0.8-0.3-1.5-1.5-1.5-2.7 0-1.3 1-6.3 2.2-11.2 1.7-6.8 2-9 1-9.3-0.6-0.1-1.2-0.8-1.2-1.3 0-0.5 1.8-1 4-1zm24.4 0.3c0.6 0.2 1.6 3.9 2.3 8.3 0.6 4.3 1.4 9.4 1.7 11.2 0.3 1.7 0.9 3.2 1.4 3.2 0.4 0 1.3-2.3 2-5.2q1.3-5.3 0.2-5.5c-0.5-0.2-1-1-1-1.8 0-0.8 0.7-1.5 1.5-1.5 0.8 0 2-1.1 2.5-2.5 0.6-1.5 1.8-2.5 3-2.5 1.6 0 1.9 0.5 1.5 2.5-0.4 1.8-0.1 2.5 1 2.5 0.8 0 1.5 0.5 1.5 1 0 0.5-0.8 1.2-1.7 1.5-1 0.3-2.4 2.2-3 4.3-0.7 2-1.3 4.6-1.3 5.7-0.1 1.6 0.2 1.7 1.2 0.9 0.7-0.7 1.7-2.7 2.1-4.5 0.4-1.9 2-4.6 3.5-6.2 2-2 3.7-2.7 6.4-2.7 2.6 0 3.9 0.5 4.4 1.8 0.6 1.6 0.7 1.6 1.5 0 0.5-1 2-1.8 3.4-1.8 1.4 0 2.7 0.5 3 1 0.3 0.7 1.5 0.6 3.3-0.2 1.5-0.6 3.5-0.8 4.5-0.5 0.9 0.4 1.7 1.5 1.7 2.5 0 0.9-0.6 3.6-1.5 6-0.9 2.4-1.1 4.2-0.5 4.2 0.6 0 1.4-1.8 2-4 0.6-2.2 2.1-5.1 3.5-6.5 1.6-1.6 3.6-2.5 5.7-2.5 1.8-0.1 4 0.6 4.8 1.5 1.3 1.4 1.7 1.4 3 0 0.8-0.8 3.2-1.5 5.3-1.5 2.7 0 4.1 0.6 5.3 2.3 1 1.4 1.4 3.4 1 5.7-0.3 1.9-1.6 4.5-2.8 5.6-1.3 1.2-3.3 2.4-4.5 2.8-1.3 0.3-3.3 0.1-4.5-0.6-1.3-0.6-2.8-1.8-3.5-2.7q-1.2-1.6-1.3-0.3c0 0.6-1.5 2-3.4 3-3.3 1.6-3.6 1.6-6 0-2.3-1.6-2.8-1.6-4.3-0.3-1 0.8-2.2 1.5-2.8 1.5-0.6 0.1-1.6-0.6-2.2-1.5-1.1-1.2-1-2.5 0.3-6.7 0.8-2.9 1.3-5.5 0.9-5.8-0.4-0.3-1.3 0.4-2.1 1.5-0.8 1.1-2.3 4.1-3.2 6.8-1.3 3.7-2.2 4.7-3.9 4.7-1.3 0-2.3-0.1-2.3-0.2 0-0.2 0.7-2.8 1.5-5.8 0.8-3 1.5-6 1.5-6.5-0.1-0.5-0.6-0.3-1.3 0.5-0.7 0.8-2.8 2.3-4.7 3.2-1.9 0.9-4.3 1.9-5.2 2.2-1 0.3-1.8 1.3-1.8 2.1 0 0.8 0.7 1.8 1.5 2.3 1 0.4 2.4-0.2 4-1.8 1.8-1.8 2.6-2.1 2.6-1 0 0.8-0.8 2.3-1.8 3.2-1 0.9-3 1.9-4.5 2.2-2 0.4-3.3 0-4.5-1.2-1.7-1.7-2-1.7-4.3-0.2-1.9 1.2-4.3 1.6-9.7 1.3-4-0.2-7.3-0.8-7.3-1.3 0-0.5 0.7-1 1.5-1 0.9 0 1.5-0.9 1.5-2.5 0-2.2-0.4-2.5-4-2.5-3 0-4.3 0.5-5 2-0.5 1.1-1 2.2-1 2.5 0 0.3 0.7 0.5 1.5 0.5 0.8 0 1.5 0.5 1.5 1 0 0.5-2.4 1-10.5 1l2.6-2.3c1.5-1.2 4.1-4.9 5.9-8.2 1.9-3.3 4.7-7.9 6.3-10.3 1.6-2.4 3.4-4.1 4.1-3.9zm-7.4 14.7c4.4 0 5-0.5 5-2.2 0-1.3-0.4-2.9-0.8-3.6-0.5-0.8-1.3-0.1-2.5 2.3zm60.3 0.8c0.4 0.4 1.5 0 2.3-0.8 0.9-0.8 1.4-2.4 1.2-3.5-0.3-1.8-0.5-1.8-2.3 0.8-1.1 1.5-1.6 3.1-1.2 3.5zm-31.7 0.2c0.2 0.3 1.3-0.4 2.4-1.5 1.2-1.1 2.1-2.3 2.1-2.8-0.1-0.4-0.8-0.7-1.6-0.7-0.8 0-1.9 1-2.4 2.2-0.5 1.3-0.7 2.5-0.5 2.8zm43.9 2.5c-0.5 2.6-0.4 4.3 0.4 4.7 0.6 0.5 1.7-0.1 2.6-1.5 0.9-1.2 1.7-4.1 2-6.5 0.3-3.2 0.1-4.2-1-4.2-0.8 0-1.9 0.8-2.4 1.7-0.5 1-1.3 3.6-1.6 5.8zm-13 2c0 1 0.6 2 1.3 2.2 0.7 0.1 2.4-0.7 3.9-2 1.4-1.2 2.4-2.7 2.1-3.3-0.3-0.8-1.4-0.8-3.9 0.1-2.2 0.7-3.4 1.8-3.4 3z"/>
	<g>
		<path id="Path 0" class="s1" d="m15.9 7.9l-5.3 2.3c-2.1 4.2-2.7 6.1-2.9 7.6-0.2 1.4-0.3 4.4-0.2 6.9 0.1 3.3 0.3 5.1 0.9 6.8 0.4 1.4 1.2 3.3 1.8 4.3 0.5 1 1.3 2.4 1.8 3 0.8 1 0.9 1.1 3 1.1h2.2c0-2 0.1-2.1 1.3-2.2 1.1-0.1 1.2-0.1 0.5-0.4-0.4-0.2-0.7-0.5-0.7-0.6 0.1-0.2 0.6-0.5 1.1-0.6 0.6-0.1 2.1-0.3 3.4-0.3 1.3-0.1 2.1-0.1 1.7-0.2-0.4-0.1-1.6-0.2-2.6-0.3-1.7-0.2-2-0.3-2-0.9 0-0.3 0.2-0.6 0.5-0.6 0.5 0 0.5-1.1 0.5-7.6 0.1-4.2 0.2-8.7 0.4-10.2 0.2-1.4 0.4-2.5 0.4-2.6 0.1 0 0.6 0 1.2 0.2 1 0.2 1.1 0.3 0.9 1.1-0.1 0.5-0.3 3-0.4 5.6 0 2.6 0 6.8 0.2 9.2l0.2 4.4c1.9 0 2.1-0.1 2.3-1.2 0.2-0.6 0.3-3.2 0.2-5.7-0.1-2.5 0-4.5 0.1-4.5 0.2 0 0.4-1.5 0.5-3.4 0.1-3.2 0.2-3.4 0.9-3.4 0.4 0 1 0.2 1.2 0.4 0.3 0.3 0.3 0.7 0.1 1.3-0.1 0.5-0.3 4.4-0.4 8.7l-0.1 7.8 2.2 0.2c0-13.3 0.1-15 0.5-15.9 0.3-0.6 0.7-1.1 0.9-1.1 0.2-0.1 0.6 0.2 0.9 0.5 0.3 0.3 0.3 0.7 0 1.2-0.2 0.4-0.3 3.6-0.2 7.9l0.1 7.2h1.7c0.3-11.6 0.4-15 0.4-15 0-0.1 0.6-0.2 1.2-0.2 0.5-0.1 1.1-0.3 1.1-0.4 0.1-0.2-0.3-0.4-1-0.4-0.6 0-1.6-0.3-2.2-0.6-0.7-0.3-3.9-1.6-7.2-2.9-5.1-2-5.9-2.5-6-3.2-0.1-0.6 0-0.7 0.3-0.6 0.3 0.2 3.7 1.7 7.6 3.4 3.9 1.7 7.3 3 7.5 3 0.1-0.1-1.9-1.1-4.6-2.4-2.7-1.2-6.3-2.8-7.9-3.5-1.7-0.8-3.1-1.5-3.3-1.8-0.1-0.2-0.1-0.5 0.1-0.7 0.1-0.1 2.6 0.9 5.6 2.2 2.9 1.4 6.5 3 8 3.6 1.5 0.6 2.8 1.4 2.8 1.6 0.2 0.4 0.3 0.3 0.6-0.3 0.4-0.8 0.4-0.9-1.1-2-0.9-0.7-2.6-2.1-3.8-3.1l-2.2-2c-5.8-0.8-7.8-1.2-8.2-1.2-0.6-0.2-0.8-0.5-0.8-1.1 0-0.4-0.1-0.8-0.2-0.8-0.2 0-2.7 1.1-5.5 2.4z"/>
		<path id="Path 1" fill-rule="evenodd" class="s2" d="m23.5 0.1c0.5-0.1 2 0.1 3.1 0.2 1.2 0.1 2.1 0.4 2.1 0.6 0 0.2-1.3 0.3-3.3 0.4-3 0-3.5 0.1-5.8 1.2-1.4 0.6-3.2 1.7-3.9 2.3-0.8 0.7-2.3 2.2-3.4 3.4-1.1 1.3-2.4 3.3-3.1 4.7-0.6 1.4-1.3 3.5-1.5 4.9-0.2 1.4-0.3 4.4-0.2 6.9 0.1 3.6 0.3 5 1 7.2 0.5 1.5 1.5 3.7 2.3 5 0.8 1.5 1.9 2.7 2.9 3.4 0.8 0.6 1.5 1.2 1.5 1.4 0 0.1 0.5 0.6 1.2 1 0.7 0.5 2.4 1.2 3.7 1.8 1.5 0.6 3.3 1 4.9 1.1 1.5 0.1 3.3 0 4.4-0.3 1-0.2 2.8-0.9 3.9-1.5 1.1-0.5 2.9-1.8 5.8-4.6l-4.9 0.2c-2.7 0.1-7.7 0.3-17 0.7v-1.2c0-1 0.1-1.1 1.3-1.2 1.1-0.1 1.2-0.1 0.5-0.4-0.4-0.2-0.7-0.5-0.7-0.6 0.1-0.2 0.6-0.5 1.1-0.6 0.6-0.1 2.1-0.3 3.4-0.3 1.3-0.1 2.1-0.1 1.7-0.2-0.4-0.1-1.6-0.2-2.6-0.3-1.7-0.2-2-0.3-2-0.9 0-0.3 0.2-0.6 0.5-0.6 0.5 0 0.5-1.1 0.5-7.6 0.1-4.2 0.2-8.7 0.4-10.2 0.2-1.4 0.4-2.5 0.4-2.6 0.1 0 0.6 0 1.2 0.2 1 0.2 1.1 0.3 0.9 1.1-0.1 0.5-0.3 3-0.4 5.6 0 2.6 0 6.8 0.4 13.6h1c0.9 0 1.1-0.1 1.3-1.2 0.2-0.6 0.3-3.2 0.2-5.7-0.1-2.5 0-4.5 0.1-4.5 0.2 0 0.4-1.5 0.5-3.4 0.1-3.2 0.2-3.4 0.9-3.4 0.4 0 1 0.2 1.2 0.4 0.3 0.3 0.3 0.7 0.1 1.3-0.1 0.5-0.3 4.4-0.5 16.5l2.2 0.2v-7.4c0-5.9 0.1-7.6 0.5-8.5 0.3-0.6 0.7-1.1 0.9-1.1 0.2-0.1 0.6 0.2 0.9 0.5 0.3 0.3 0.3 0.7 0 1.2-0.2 0.4-0.3 3.6-0.1 15.1h1.7l0.2-7.5c0.1-4.1 0.2-7.5 0.2-7.5 0-0.1 0.6-0.1 1.2 0 0.9 0 1.1 0.2 0.9 0.7 0 0.4-0.2 3.9-0.2 7.8-0.1 6.1-0.1 7 0.4 7q0.5 0 0.5 1.1 0 1 0.6 1.2c0.3 0 0.5 0.2 0.3 0.4-0.1 0.1 0 0.5 0.4 0.8 0.5 0.6 0.6 0.6 1.2-0.3 0.3-0.5 1.1-2 1.7-3.2 0.7-1.3 1.5-3.5 1.9-4.9 0.5-1.9 0.7-3.6 0.7-6.6 0-3.1 0.1-4.1 0.4-4 0.3 0.1 0.5 1 0.6 2.5 0.1 1.2 0.1 3.7-0.1 5.4-0.2 1.7-0.5 3.8-0.8 4.7-0.3 1-1.1 2.7-1.7 4-0.6 1.2-1.7 3-2.5 4-0.7 1.1-2.3 2.7-3.5 3.6-1.1 0.9-2.9 2-3.8 2.4-0.9 0.4-2.8 1-4.2 1.2-2.1 0.3-3.2 0.3-6-0.1-2.1-0.4-4-0.9-5.2-1.5-1.1-0.6-3-2-4.6-3.7-1.5-1.5-3.2-3.6-3.8-4.6-0.6-1-1.5-2.8-2-4.1-0.6-1.4-1-3.4-1.2-5.6-0.3-2.4-0.3-4.4 0-6.8 0.2-1.9 0.7-4.4 1.1-5.6 0.4-1.2 1.3-3.3 2.1-4.6 0.8-1.3 2.2-3.2 3.3-4.3 1-1 2.9-2.5 4.2-3.3 1.3-0.8 3.1-1.7 3.9-1.9 0.9-0.3 2-0.5 2.6-0.5zm0 6c1.1 0.1 2.5 0.3 3.2 0.4 0.7 0.2 1.7 0.3 2.3 0.3 0.8 0 1.6 0.5 3.2 1.8 1.2 0.9 3 2.5 4.1 3.6 1 1 1.9 2 1.9 2.1 0 0.2 0 0.4-0.1 0.4-0.1 0-0.9-0.5-1.7-1.1-0.7-0.6-2.4-2-5.8-5l-3.7-0.5c-2.1-0.3-4.1-0.7-4.5-0.7-0.5-0.1-0.8-0.5-0.8-0.9 0-0.6 0.1-0.6 1.9-0.4zm-2.7 2.5c0.2-0.1 2.8 1.1 5.9 2.4 3.1 1.4 6.7 3 8 3.5 2.3 1 2.3 1.1 2.3 2.2 0 1.1-0.1 1.2-0.8 1.2-0.5 0-1.4-0.3-2-0.6-0.7-0.3-3.9-1.6-7.2-2.9-5.1-2-5.9-2.5-6-3.2-0.1-0.6 0-0.7 0.3-0.6 0.3 0.2 3.7 1.7 7.6 3.4 3.9 1.7 7.3 3 7.5 3 0.1-0.1-1.8-1.1-4.3-2.2-2.5-1.2-6.1-2.8-7.9-3.6-2.1-0.9-3.5-1.7-3.5-2.1-0.1-0.3 0-0.5 0.1-0.5z"/>
		<path id="Path 2" class="s3" d="m26.3 0.2c0.2 0.1 0.6 0.1 0.8 0 0.3 0 0.1-0.1-0.4-0.1-0.5 0-0.7 0.1-0.4 0.1zm2.4 0.8c-0.1 0.5 0.1 0.7 1.1 0.9 0.6 0.1 2.2 0.7 3.5 1.3 1.6 0.6 3 1.5 4.2 2.7 1 1 2.5 2.9 3.4 4.2 0.8 1.3 2 3.6 2.5 5.1 0.5 1.5 0.9 3.3 1 3.9 0 0.7 0.1 0.9 0.1 0.4q0.2-0.7 0.7-0.6c0.4 0.2 0.4 0 0.3-0.7-0.1-0.5-0.4-1.6-0.6-2.3-0.1-0.8-0.9-2.6-1.6-4.1-0.7-1.5-2-3.7-2.9-4.8-0.9-1.1-2.6-2.6-3.7-3.4-1.1-0.8-2.9-1.7-3.9-2.1-1-0.4-2.3-0.8-2.9-0.9-0.9-0.2-1.1-0.1-1.2 0.4zm-3.9 0.3c0.6 0.1 1.3 0.1 1.7 0 0.4-0.1-0.1-0.1-1-0.1-0.9 0-1.2 0-0.7 0.1zm-2.8 0.3c0.2 0.1 0.5 0.1 0.6 0 0.1-0.1-0.1-0.2-0.5-0.2q-0.7 0-0.1 0.2zm0.9 4.4c0.2 0.1 0.6 0.1 0.8 0 0.3-0.1 0.1-0.1-0.4-0.1-0.5 0-0.6 0-0.4 0.1zm4.8 0.7c0.3 0.1 0.6 0.1 0.7 0 0-0.1-0.2-0.2-0.5-0.2q-0.7 0.1-0.2 0.2zm-21.7 13.6c0.1 0.4 0.1 0.5 0.2 0.2 0-0.2 0-0.5-0.1-0.6 0-0.2-0.1 0-0.1 0.4zm30.9 1.4q0.1 0.9 0.2 0.3c0.1-0.4 0.1-0.8 0-1-0.1-0.2-0.2 0.1-0.2 0.7zm8.9 0.3c0 0.8 0 1 0.1 0.5 0.1-0.5 0.1-1.1 0-1.3-0.1-0.3-0.1 0.1-0.1 0.8zm0 3.4q0 1 0.1 0.4c0.1-0.4 0.1-0.9 0-1.1-0.1-0.2-0.2 0.1-0.1 0.7zm-39.8 1.7c0.1 0.4 0.1 0.5 0.2 0.2 0-0.2 0-0.5-0.1-0.6 0-0.2-0.1 0-0.1 0.4zm38.3 0c0.1 0.4 0.1 0.5 0.2 0.2 0-0.2 0-0.5-0.1-0.6 0-0.2-0.1 0-0.1 0.4zm-11.6 12.3c0.3 0.1 0.6 0.1 0.9 0 0.2-0.1 0-0.1-0.5-0.1-0.4 0-0.6 0-0.4 0.1zm-8.5 7.5c0.3 0.1 0.7 0.1 0.9 0 0.2-0.1 0-0.1-0.4-0.1-0.5 0-0.7 0-0.5 0.1zm4.2 0c0.3 0.1 0.6 0.1 0.6 0 0.1-0.1-0.1-0.2-0.5-0.2q-0.7 0-0.1 0.2z"/>
		<path id="Path 3" class="s2" d="m16.2 15.4c0 0.3-0.2 0.7-0.5 1-0.5 0.4-0.5 1.5-0.5 8.8l0.1 8.4c1.7 0.2 1.8 0.1 2-2.1 0.1-1.3 0.2-5.1 0.2-8.5 0-4.5 0.2-6.2 0.5-6.6 0.3-0.3 0.3-0.5-0.3-0.9-0.4-0.3-0.9-0.5-1.1-0.5-0.2 0-0.4 0.2-0.4 0.4zm-5.7 2.9c-0.3 0.7-0.4 3.2-0.3 8.3l0.1 7.3c1.6 0 1.7 0 1.9-3.6 0.1-1.9 0.1-5.3 0-7.4-0.2-3.2-0.2-3.9 0.3-4.1 0.3-0.2 0.4-0.5 0.2-0.9-0.1-0.2-0.6-0.5-1-0.5q-0.8 0-1.2 0.9z"/>
	</g>
</svg>