<?xml version="1.0" encoding="UTF-8"?>
<!DOCTYPE svg PUBLIC "-//W3C//DTD SVG 1.1//EN" "http://www.w3.org/Graphics/SVG/1.1/DTD/svg11.dtd">
<svg xmlns="http://www.w3.org/2000/svg" version="1.1" width="140px" height="140px" style="shape-rendering:geometricPrecision; text-rendering:geometricPrecision; image-rendering:optimizeQuality; fill-rule:evenodd; clip-rule:evenodd" xmlns:xlink="http://www.w3.org/1999/xlink">
<g><path style="opacity:1" fill="#dedddf" d="M 60.5,1.5 C 93.9056,-0.942534 116.072,13.7241 127,45.5C 134.632,72.0432 130.299,96.3765 114,118.5C 95.3193,139.17 73.1526,144.003 47.5,133C 20.7489,114.98 9.58219,89.8132 14,57.5C 18.5806,29.4463 34.0806,10.7797 60.5,1.5 Z M 111.5,115.5 C 111.737,114.209 111.404,113.209 110.5,112.5C 109.833,111.833 109.167,111.167 108.5,110.5C 109.55,110.095 109.55,109.429 108.5,108.5C 106.257,107.526 103.924,107.192 101.5,107.5C 102.919,106.549 104.585,106.216 106.5,106.5C 106.5,105.167 106.5,103.833 106.5,102.5C 105.5,102.5 104.5,102.5 103.5,102.5C 103.184,88.0882 103.518,73.7548 104.5,59.5C 105.885,58.0527 105.552,57.0527 103.5,56.5C 104.278,55.8444 104.944,55.0111 105.5,54C 105.43,53.2352 105.097,52.7352 104.5,52.5C 104.158,51.6618 103.492,51.3284 102.5,51.5C 102.5,50.8333 102.833,50.5 103.5,50.5C 103.833,50.5 104.167,50.5 104.5,50.5C 105.486,48.5739 106.486,46.5739 107.5,44.5C 107.649,43.448 107.483,42.448 107,41.5C 99.9422,34.936 92.7756,28.6027 85.5,22.5C 82.0542,21.3126 78.3875,20.6459 74.5,20.5C 69.6142,19.2786 64.6142,18.6119 59.5,18.5C 59.44,17.9569 59.1067,17.6236 58.5,17.5C 48.5,21.8333 38.5,26.1667 28.5,30.5C 27.8933,30.3764 27.56,30.0431 27.5,29.5C 46.9473,2.72276 71.2806,-2.77724 100.5,13C 118.596,27.5306 127.596,46.5306 127.5,70C 127.395,87.1571 122.061,102.324 111.5,115.5 Z M 104.5,115.5 C 106.833,115.5 109.167,115.5 111.5,115.5C 91.4984,138.029 68.4984,141.529 42.5,126C 39.6043,122.934 36.6043,120.101 33.5,117.5C 57.2439,117.639 80.9105,116.972 104.5,115.5 Z"/></g>
<g><path style="opacity:1" fill="#eaeaeb" d="M 59.5,18.5 C 64.6142,18.6119 69.6142,19.2786 74.5,20.5C 77.8756,22.0823 81.5422,22.7489 85.5,22.5C 92.7756,28.6027 99.9422,34.936 107,41.5C 107.483,42.448 107.649,43.448 107.5,44.5C 99.7661,38.9433 92.4328,32.7766 85.5,26C 76.8097,24.9402 68.1431,23.7736 59.5,22.5C 58.3143,21.0387 58.3143,19.7054 59.5,18.5 Z"/></g>
<g><path style="opacity:1" fill="#a09fa0" d="M 59.5,18.5 C 58.3143,19.7054 58.3143,21.0387 59.5,22.5C 47.2879,26.6055 35.2879,31.2721 23.5,36.5C 24.5957,33.9684 25.9291,31.6351 27.5,29.5C 27.56,30.0431 27.8933,30.3764 28.5,30.5C 38.5,26.1667 48.5,21.8333 58.5,17.5C 59.1067,17.6236 59.44,17.9569 59.5,18.5 Z"/></g>
<g><path style="opacity:1" fill="#b3b3b6" d="M 74.5,20.5 C 78.3875,20.6459 82.0542,21.3126 85.5,22.5C 81.5422,22.7489 77.8756,22.0823 74.5,20.5 Z"/></g>
<g><path style="opacity:1" fill="#78777b" d="M 59.5,22.5 C 68.1431,23.7736 76.8097,24.9402 85.5,26C 92.4328,32.7766 99.7661,38.9433 107.5,44.5C 106.486,46.5739 105.486,48.5739 104.5,50.5C 104.5,49.1667 104.5,47.8333 104.5,46.5C 88.2721,40.0535 72.2721,33.0535 56.5,25.5C 44.8929,30.4539 33.5596,35.1206 22.5,39.5C 22.5569,38.391 22.8902,37.391 23.5,36.5C 35.2879,31.2721 47.2879,26.6055 59.5,22.5 Z"/></g>
<g><path style="opacity:1" fill="#f3f3f4" d="M 56.5,25.5 C 72.2721,33.0535 88.2721,40.0535 104.5,46.5C 104.5,47.8333 104.5,49.1667 104.5,50.5C 104.167,50.5 103.833,50.5 103.5,50.5C 88.0155,43.2611 72.3488,36.2611 56.5,29.5C 56.5,28.1667 56.5,26.8333 56.5,25.5 Z"/></g>
<g><path style="opacity:1" fill="#a1a0a1" d="M 56.5,25.5 C 56.5,26.8333 56.5,28.1667 56.5,29.5C 44.5,34.5 32.5,39.5 20.5,44.5C 20.4021,42.4471 21.0687,40.7804 22.5,39.5C 33.5596,35.1206 44.8929,30.4539 56.5,25.5 Z"/></g>
<g><path style="opacity:1" fill="#f2f2f2" d="M 56.5,31.5 C 71.7929,38.1437 87.1262,44.8103 102.5,51.5C 103.492,51.3284 104.158,51.6618 104.5,52.5C 104.53,53.4972 104.03,54.1639 103,54.5C 98.7513,52.9562 94.5847,51.2895 90.5,49.5C 80.5,45.5 70.5,41.5 60.5,37.5C 59.609,36.8902 58.609,36.5569 57.5,36.5C 56.6993,34.9582 56.366,33.2915 56.5,31.5 Z"/></g>
<g><path style="opacity:1" fill="#848387" d="M 56.5,29.5 C 72.3488,36.2611 88.0155,43.2611 103.5,50.5C 102.833,50.5 102.5,50.8333 102.5,51.5C 87.1262,44.8103 71.7929,38.1437 56.5,31.5C 44.526,36.8188 32.526,42.1522 20.5,47.5C 19.8933,47.3764 19.56,47.0431 19.5,46.5C 19.3284,45.5084 19.6618,44.8417 20.5,44.5C 32.5,39.5 44.5,34.5 56.5,29.5 Z"/></g>
<g><path style="opacity:1" fill="#a1a0a1" d="M 56.5,31.5 C 56.366,33.2915 56.6993,34.9582 57.5,36.5C 55.8008,36.3398 54.1341,36.5065 52.5,37C 41.2611,42.1212 29.9277,46.9546 18.5,51.5C 18.2155,49.5853 18.5489,47.9187 19.5,46.5C 19.56,47.0431 19.8933,47.3764 20.5,47.5C 32.526,42.1522 44.526,36.8188 56.5,31.5 Z"/></g>
<g><path style="opacity:1" fill="#747378" d="M 57.5,36.5 C 58.609,36.5569 59.609,36.8902 60.5,37.5C 60.1667,38.1667 59.8333,38.8333 59.5,39.5C 59.5,39.8333 59.5,40.1667 59.5,40.5C 54.4047,41.0076 53.5713,43.0076 57,46.5C 57.4999,64.4969 57.6666,82.4969 57.5,100.5C 56.1667,100.5 54.8333,100.5 53.5,100.5C 51.1667,100.5 48.8333,100.5 46.5,100.5C 46.5,83.5 46.5,66.5 46.5,49.5C 47.5,49.5 48.5,49.5 49.5,49.5C 48.5392,46.1653 46.2059,44.4986 42.5,44.5C 40.4824,45.1746 38.8157,46.3413 37.5,48C 37.7483,49.7491 38.7483,50.5824 40.5,50.5C 40.5,67.1667 40.5,83.8333 40.5,100.5C 37.5,100.5 34.5,100.5 31.5,100.5C 30.8748,85.2577 31.5415,70.2577 33.5,55.5C 32.6082,52.7079 30.6082,51.3746 27.5,51.5C 25.3551,51.7377 23.6885,52.7377 22.5,54.5C 23.0047,55.9185 24.0047,56.5852 25.5,56.5C 25.5,71.1667 25.5,85.8333 25.5,100.5C 24.5,100.5 23.5,100.5 22.5,100.5C 16.1941,84.568 14.8607,68.2346 18.5,51.5C 29.9277,46.9546 41.2611,42.1212 52.5,37C 54.1341,36.5065 55.8008,36.3398 57.5,36.5 Z"/></g>
<g><path style="opacity:1" fill="#b3b3b4" d="M 59.5,40.5 C 59.5743,42.4109 60.5743,43.5776 62.5,44C 61.2068,44.49 59.8734,44.6567 58.5,44.5C 58.8302,63.3408 58.4969,82.0075 57.5,100.5C 57.6666,82.4969 57.4999,64.4969 57,46.5C 53.5713,43.0076 54.4047,41.0076 59.5,40.5 Z"/></g>
<g><path style="opacity:1" fill="#fbfbfb" d="M 59.5,39.5 C 61.7457,40.4552 64.079,41.1218 66.5,41.5C 66.7678,43.099 66.4345,44.4324 65.5,45.5C 65.44,44.9569 65.1067,44.6236 64.5,44.5C 63.5004,63.4883 63.1671,82.4883 63.5,101.5C 66.8333,101.5 70.1667,101.5 73.5,101.5C 74.4965,85.0084 74.8298,68.3417 74.5,51.5C 75.8333,51.5 77.1667,51.5 78.5,51.5C 78.1702,68.3417 78.5035,85.0084 79.5,101.5C 81.9479,102.473 84.6146,102.806 87.5,102.5C 87.5,86.8333 87.5,71.1667 87.5,55.5C 88.2341,54.2921 88.5674,52.9587 88.5,51.5C 88.5,50.8333 88.8333,50.5 89.5,50.5C 91.4124,51.2105 93.079,52.3771 94.5,54C 94.1639,55.0299 93.4972,55.5299 92.5,55.5C 91.5037,70.9911 91.1704,86.6578 91.5,102.5C 93.8333,102.5 96.1667,102.5 98.5,102.5C 98.5,88.1667 98.5,73.8333 98.5,59.5C 99.2341,58.2921 99.5674,56.9587 99.5,55.5C 100.959,55.4326 102.292,55.7659 103.5,56.5C 105.552,57.0527 105.885,58.0527 104.5,59.5C 102.517,73.7952 101.85,88.4619 102.5,103.5C 103.675,103.281 104.675,103.614 105.5,104.5C 100.544,105.494 95.544,105.827 90.5,105.5C 78.1485,105.649 65.8152,105.315 53.5,104.5C 53.5,103.167 53.5,101.833 53.5,100.5C 54.8333,100.5 56.1667,100.5 57.5,100.5C 58.4969,82.0075 58.8302,63.3408 58.5,44.5C 59.8734,44.6567 61.2068,44.49 62.5,44C 60.5743,43.5776 59.5743,42.4109 59.5,40.5C 59.5,40.1667 59.5,39.8333 59.5,39.5 Z"/></g>
<g><path style="opacity:1" fill="#a2a1a2" d="M 42.5,44.5 C 42.33,45.8221 42.6634,46.9887 43.5,48C 42.5842,48.2784 41.9175,48.7784 41.5,49.5C 40.8333,49.5 40.5,49.8333 40.5,50.5C 38.7483,50.5824 37.7483,49.7491 37.5,48C 38.8157,46.3413 40.4824,45.1746 42.5,44.5 Z"/></g>
<g><path style="opacity:1" fill="#757479" d="M 60.5,37.5 C 70.5,41.5 80.5,45.5 90.5,49.5C 90.5,50.1667 90.1667,50.5 89.5,50.5C 88.8333,50.5 88.5,50.8333 88.5,51.5C 86.0523,51.0847 84.7189,52.0847 84.5,54.5C 84.7472,55.7133 85.4138,56.38 86.5,56.5C 86.5,71.5 86.5,86.5 86.5,101.5C 84.1667,101.5 81.8333,101.5 79.5,101.5C 79.1672,84.82 79.5005,68.1533 80.5,51.5C 81.5,51.1667 82.1667,50.5 82.5,49.5C 80.6492,47.5442 78.3158,46.5442 75.5,46.5C 73.3551,46.7377 71.6885,47.7377 70.5,49.5C 70.8076,50.3081 71.3076,50.9747 72,51.5C 72.4999,67.8299 72.6666,84.1633 72.5,100.5C 69.8333,100.5 67.1667,100.5 64.5,100.5C 64.1698,81.9924 64.5032,63.6591 65.5,45.5C 66.4345,44.4324 66.7678,43.099 66.5,41.5C 64.079,41.1218 61.7457,40.4552 59.5,39.5C 59.8333,38.8333 60.1667,38.1667 60.5,37.5 Z"/></g>
<g><path style="opacity:1" fill="#aaaaad" d="M 65.5,45.5 C 64.5032,63.6591 64.1698,81.9924 64.5,100.5C 67.1667,100.5 69.8333,100.5 72.5,100.5C 72.8333,100.5 73.1667,100.5 73.5,100.5C 73.5,100.833 73.5,101.167 73.5,101.5C 70.1667,101.5 66.8333,101.5 63.5,101.5C 63.1671,82.4883 63.5004,63.4883 64.5,44.5C 65.1067,44.6236 65.44,44.9569 65.5,45.5 Z"/></g>
<g><path style="opacity:1" fill="#fefffe" d="M 41.5,49.5 C 42.8333,49.5 44.1667,49.5 45.5,49.5C 45.5,66.1667 45.5,82.8333 45.5,99.5C 44.1667,99.5 42.8333,99.5 41.5,99.5C 41.5,82.8333 41.5,66.1667 41.5,49.5 Z"/></g>
<g><path style="opacity:1" fill="#a2a1a2" d="M 27.5,51.5 C 27.6085,53.5138 26.9418,55.1805 25.5,56.5C 24.0047,56.5852 23.0047,55.9185 22.5,54.5C 23.6885,52.7377 25.3551,51.7377 27.5,51.5 Z"/></g>
<g><path style="opacity:1" fill="#e8e9ea" d="M 41.5,49.5 C 41.5,66.1667 41.5,82.8333 41.5,99.5C 42.8333,99.5 44.1667,99.5 45.5,99.5C 45.5,99.8333 45.5,100.167 45.5,100.5C 43.8333,100.5 42.1667,100.5 40.5,100.5C 40.5,83.8333 40.5,67.1667 40.5,50.5C 40.5,49.8333 40.8333,49.5 41.5,49.5 Z"/></g>
<g><path style="opacity:1" fill="#d6d5d6" d="M 42.5,44.5 C 46.2059,44.4986 48.5392,46.1653 49.5,49.5C 48.5,49.5 47.5,49.5 46.5,49.5C 46.5,66.5 46.5,83.5 46.5,100.5C 46.1667,100.5 45.8333,100.5 45.5,100.5C 45.5,100.167 45.5,99.8333 45.5,99.5C 45.5,82.8333 45.5,66.1667 45.5,49.5C 44.1667,49.5 42.8333,49.5 41.5,49.5C 41.9175,48.7784 42.5842,48.2784 43.5,48C 42.6634,46.9887 42.33,45.8221 42.5,44.5 Z"/></g>
<g><path style="opacity:1" fill="#a3a1a3" d="M 88.5,51.5 C 88.5674,52.9587 88.2341,54.2921 87.5,55.5C 86.8333,55.5 86.5,55.8333 86.5,56.5C 85.4138,56.38 84.7472,55.7133 84.5,54.5C 84.7189,52.0847 86.0523,51.0847 88.5,51.5 Z"/></g>
<g><path style="opacity:1" fill="#8a898d" d="M 90.5,49.5 C 94.5847,51.2895 98.7513,52.9562 103,54.5C 104.03,54.1639 104.53,53.4972 104.5,52.5C 105.097,52.7352 105.43,53.2352 105.5,54C 104.944,55.0111 104.278,55.8444 103.5,56.5C 102.292,55.7659 100.959,55.4326 99.5,55.5C 99.5674,56.9587 99.2341,58.2921 98.5,59.5C 97.8333,59.5 97.5,59.8333 97.5,60.5C 95.6938,59.2648 94.0271,57.9314 92.5,56.5C 92.5,56.1667 92.5,55.8333 92.5,55.5C 93.4972,55.5299 94.1639,55.0299 94.5,54C 93.079,52.3771 91.4124,51.2105 89.5,50.5C 90.1667,50.5 90.5,50.1667 90.5,49.5 Z"/></g>
<g><path style="opacity:1" fill="#8a898d" d="M 75.5,46.5 C 73.6111,64.393 72.9445,82.393 73.5,100.5C 73.1667,100.5 72.8333,100.5 72.5,100.5C 72.6666,84.1633 72.4999,67.8299 72,51.5C 71.3076,50.9747 70.8076,50.3081 70.5,49.5C 71.6885,47.7377 73.3551,46.7377 75.5,46.5 Z"/></g>
<g><path style="opacity:1" fill="#e7e7e7" d="M 75.5,46.5 C 78.3158,46.5442 80.6492,47.5442 82.5,49.5C 82.1667,50.5 81.5,51.1667 80.5,51.5C 79.5005,68.1533 79.1672,84.82 79.5,101.5C 78.5035,85.0084 78.1702,68.3417 78.5,51.5C 77.1667,51.5 75.8333,51.5 74.5,51.5C 74.8298,68.3417 74.4965,85.0084 73.5,101.5C 73.5,101.167 73.5,100.833 73.5,100.5C 72.9445,82.393 73.6111,64.393 75.5,46.5 Z"/></g>
<g><path style="opacity:1" fill="#f8f9f9" d="M 27.5,51.5 C 30.6082,51.3746 32.6082,52.7079 33.5,55.5C 32.5,55.5 31.5,55.5 30.5,55.5C 30.5,70.5 30.5,85.5 30.5,100.5C 28.8333,100.5 27.1667,100.5 25.5,100.5C 25.5,85.8333 25.5,71.1667 25.5,56.5C 26.9418,55.1805 27.6085,53.5138 27.5,51.5 Z"/></g>
<g><path style="opacity:1" fill="#737277" d="M 92.5,56.5 C 94.0271,57.9314 95.6938,59.2648 97.5,60.5C 97.5,74.1667 97.5,87.8333 97.5,101.5C 95.8333,101.5 94.1667,101.5 92.5,101.5C 92.5,86.5 92.5,71.5 92.5,56.5 Z"/></g>
<g><path style="opacity:1" fill="#e1e1e2" d="M 87.5,55.5 C 87.5,71.1667 87.5,86.8333 87.5,102.5C 84.6146,102.806 81.9479,102.473 79.5,101.5C 81.8333,101.5 84.1667,101.5 86.5,101.5C 86.5,86.5 86.5,71.5 86.5,56.5C 86.5,55.8333 86.8333,55.5 87.5,55.5 Z"/></g>
<g><path style="opacity:1" fill="#acabaf" d="M 92.5,55.5 C 92.5,55.8333 92.5,56.1667 92.5,56.5C 92.5,71.5 92.5,86.5 92.5,101.5C 94.1667,101.5 95.8333,101.5 97.5,101.5C 97.5,87.8333 97.5,74.1667 97.5,60.5C 97.5,59.8333 97.8333,59.5 98.5,59.5C 98.5,73.8333 98.5,88.1667 98.5,102.5C 96.1667,102.5 93.8333,102.5 91.5,102.5C 91.1704,86.6578 91.5037,70.9911 92.5,55.5 Z"/></g>
<g><path style="opacity:1" fill="#a3a2a3" d="M 33.5,55.5 C 31.5415,70.2577 30.8748,85.2577 31.5,100.5C 34.5,100.5 37.5,100.5 40.5,100.5C 42.1667,100.5 43.8333,100.5 45.5,100.5C 45.8333,100.5 46.1667,100.5 46.5,100.5C 48.8333,100.5 51.1667,100.5 53.5,100.5C 53.5,101.833 53.5,103.167 53.5,104.5C 43.8333,104.5 34.1667,104.5 24.5,104.5C 23.3263,103.486 22.6596,102.153 22.5,100.5C 23.5,100.5 24.5,100.5 25.5,100.5C 27.1667,100.5 28.8333,100.5 30.5,100.5C 30.5,85.5 30.5,70.5 30.5,55.5C 31.5,55.5 32.5,55.5 33.5,55.5 Z"/></g>
<g><path style="opacity:1" fill="#77767b" d="M 24.5,104.5 C 34.1667,104.5 43.8333,104.5 53.5,104.5C 65.8152,105.315 78.1485,105.649 90.5,105.5C 84.021,106.491 77.3543,106.824 70.5,106.5C 55.5,106.5 40.5,106.5 25.5,106.5C 25.1667,105.833 24.8333,105.167 24.5,104.5 Z"/></g>
<g><path style="opacity:1" fill="#a9a8a9" d="M 25.5,106.5 C 40.5,106.5 55.5,106.5 70.5,106.5C 70.5,106.833 70.5,107.167 70.5,107.5C 63.5,107.5 56.5,107.5 49.5,107.5C 49.5,108.5 49.5,109.5 49.5,110.5C 42.3134,110.175 35.3134,110.509 28.5,111.5C 27.2632,110.035 26.2632,108.368 25.5,106.5 Z"/></g>
<g><path style="opacity:1" fill="#99989c" d="M 104.5,59.5 C 103.518,73.7548 103.184,88.0882 103.5,102.5C 104.5,102.5 105.5,102.5 106.5,102.5C 106.5,103.833 106.5,105.167 106.5,106.5C 104.585,106.216 102.919,106.549 101.5,107.5C 91.1667,107.5 80.8333,107.5 70.5,107.5C 70.5,107.167 70.5,106.833 70.5,106.5C 77.3543,106.824 84.021,106.491 90.5,105.5C 95.544,105.827 100.544,105.494 105.5,104.5C 104.675,103.614 103.675,103.281 102.5,103.5C 101.85,88.4619 102.517,73.7952 104.5,59.5 Z"/></g>
<g><path style="opacity:1" fill="#fcfcfc" d="M 70.5,107.5 C 80.8333,107.5 91.1667,107.5 101.5,107.5C 103.924,107.192 106.257,107.526 108.5,108.5C 109.55,109.429 109.55,110.095 108.5,110.5C 88.8333,110.5 69.1667,110.5 49.5,110.5C 49.5,109.5 49.5,108.5 49.5,107.5C 56.5,107.5 63.5,107.5 70.5,107.5 Z"/></g>
<g><path style="opacity:1" fill="#77767b" d="M 49.5,110.5 C 65.5,111.167 81.5,111.833 97.5,112.5C 80.1667,112.5 62.8333,112.5 45.5,112.5C 40.1667,112.5 34.8333,112.5 29.5,112.5C 28.8333,112.5 28.5,112.167 28.5,111.5C 35.3134,110.509 42.3134,110.175 49.5,110.5 Z"/></g>
<g><path style="opacity:0.996" fill="#8f8d91" d="M 49.5,110.5 C 69.1667,110.5 88.8333,110.5 108.5,110.5C 109.167,111.167 109.833,111.833 110.5,112.5C 106.167,112.5 101.833,112.5 97.5,112.5C 81.5,111.833 65.5,111.167 49.5,110.5 Z"/></g>
<g><path style="opacity:1" fill="#f7f7f7" d="M 45.5,112.5 C 62.8333,112.5 80.1667,112.5 97.5,112.5C 101.833,112.5 106.167,112.5 110.5,112.5C 111.404,113.209 111.737,114.209 111.5,115.5C 109.167,115.5 106.833,115.5 104.5,115.5C 84.829,115.624 65.1623,115.957 45.5,116.5C 45.5,115.167 45.5,113.833 45.5,112.5 Z"/></g>
<g><path style="opacity:1" fill="#a2a0a3" d="M 29.5,112.5 C 34.8333,112.5 40.1667,112.5 45.5,112.5C 45.5,113.833 45.5,115.167 45.5,116.5C 65.1623,115.957 84.829,115.624 104.5,115.5C 80.9105,116.972 57.2439,117.639 33.5,117.5C 31.457,116.421 30.1237,114.754 29.5,112.5 Z"/></g>
</svg>
