<svg xmlns="http://www.w3.org/2000/svg" xmlns:xlink="http://www.w3.org/1999/xlink"
    style="display: none;">
    <symbol id="Equis" viewBox="0 0 320.591 320.591">
        <path
            d="M30.391 318.583a30.37 30.37 0 0 1-21.56-7.288c-11.774-11.844-11.774-30.973 0-42.817L266.643 10.665c12.246-11.459 31.462-10.822 42.921 1.424 10.362 11.074 10.966 28.095 1.414 39.875L51.647 311.295a30.366 30.366 0 0 1-21.256 7.288z"
            data-original="#000000"
        ></path>
        <path
            d="M287.9 318.583a30.37 30.37 0 0 1-21.257-8.806L8.83 51.963C-2.078 39.225-.595 20.055 12.143 9.146c11.369-9.736 28.136-9.736 39.504 0l259.331 257.813c12.243 11.462 12.876 30.679 1.414 42.922-.456.487-.927.958-1.414 1.414a30.368 30.368 0 0 1-23.078 7.288z"
            data-original="#000000"
        ></path>
    </symbol>
    <symbol id="BurguerMenu" viewBox="0 0 20 20">
        <path
            fill-rule="evenodd"
            clip-rule="evenodd"
            d="M3 5a1 1 0 011-1h12a1 1 0 110 2H4a1 1 0 01-1-1zM3 10a1 1 0 011-1h12a1 1 0 110 2H4a1 1 0 01-1-1zM3 15a1 1 0 011-1h12a1 1 0 110 2H4a1 1 0 01-1-1z"
        ></path>
    </symbol>

    <symbol id="Cart" viewBox="0 0 122.88 94.27">
        <path
            fill-rule="evenodd"
            clip-rule="evenodd"
            d="M12.04,27.72h9.43L44.56,1.86c2.05-2.3,5.61-2.5,7.9-0.45v0c2.3,2.05,2.5,5.61,0.45,7.91l-16.42,18.4h50.32 L70.39,9.32c-2.05-2.3-1.85-5.86,0.45-7.91h0c2.3-2.05,5.85-1.85,7.91,0.45l23.08,25.86l9.02,0l0.12,0l8.47,0 c1.9,0,3.45,1.55,3.45,3.45v9.73c0,1.9-1.55,3.45-3.45,3.45h-7.33l-3.77,47.53c-0.1,1.31-1.08,2.39-2.39,2.39H16.94 c-1.31,0-2.29-1.08-2.39-2.39l-3.77-47.53H3.45C1.55,44.35,0,42.8,0,40.9v-9.73c0-1.9,1.55-3.45,3.45-3.45l8.47,0L12.04,27.72 L12.04,27.72z M77.67,46.22h10.91v31.53l-10.91,0V46.22L77.67,46.22z M56.45,46.22h10.9v31.53l-10.9,0V46.22L56.45,46.22z M35.23,46.22h10.91v31.53l-10.91,0V46.22L35.23,46.22z" />
    </symbol>

    <symbol id="Angle-Left" viewBox="0 0 80.593 122.88">
        <polygon points="80.593,0 49.771,0 0,61.44 49.771,122.88 80.593,122.88 30.82,61.44 80.593,0" />
    </symbol>

    <symbol id="Angle-Right" viewBox="0 0 80.593 122.88">
        <polygon points="0,0 30.82,0 80.593,61.44 30.82,122.88 0,122.88 49.772,61.44 0,0" />
    </symbol>

    <symbol id="Delivery-Truck" viewBox="0 0 122.88 74.34">
        <path
            fill-rule="evenodd"
            clip-rule="evenodd"
            d="M94.42,18.73l-17.98-0.1V6.53c0-1.8-0.73-3.43-1.92-4.61C73.34,0.73,71.71,0,69.91,0H20.07 c-1.8,0-3.43,0.73-4.61,1.92c-1.18,1.18-1.92,2.81-1.92,4.61c0,0.98,0.79,1.77,1.77,1.77c0.98,0,1.77-0.79,1.77-1.77 c0-0.82,0.34-1.57,0.88-2.11c0.54-0.54,1.29-0.88,2.11-0.88h49.84c0.82,0,1.57,0.34,2.11,0.88c0.54,0.54,0.88,1.29,0.88,2.11v55.41 h-9.98c-0.98,0-1.77,0.79-1.77,1.77c0,0.98,0.79,1.77,1.77,1.77h11.75c0.98,0,1.77-0.79,1.77-1.77v-2.01h10.68 c0.81-18.42,27.26-20.96,29.95,0h5.81l-1.79-19.22l-19.07-7.3L94.42,18.73L94.42,18.73z M2.65,37.54c-1.47,0-2.65-0.8-2.65-1.78 c0-0.98,1.19-1.78,2.65-1.78h23.89c1.47,0,2.65,0.8,2.65,1.78c0,0.98-1.19,1.78-2.65,1.78H2.65L2.65,37.54z M8.12,27.96 c-1.1,0-1.99-0.79-1.99-1.77c0-0.98,0.89-1.77,1.99-1.77h18.43c1.1,0,1.99,0.79,1.99,1.77c0,0.98-0.89,1.77-1.99,1.77H8.12 L8.12,27.96z M10.65,18.38c-1.1,0-1.99-0.79-1.99-1.77c0-0.98,0.89-1.77,1.99-1.77h15.89c1.1,0,1.99,0.79,1.99,1.77 c0,0.98-0.89,1.77-1.99,1.77H10.65L10.65,18.38z M26.46,61.93c0.98,0,1.77,0.79,1.77,1.77c0,0.98-0.79,1.77-1.77,1.77h-6.39 c-1.79,0-3.42-0.78-4.61-2.01c-1.18-1.23-1.92-2.91-1.92-4.69v-13c0-0.98,0.79-1.77,1.77-1.77c0.98,0,1.77,0.79,1.77,1.77v13 c0,0.85,0.35,1.66,0.92,2.25c0.54,0.56,1.27,0.92,2.06,0.92H26.46L26.46,61.93z M44.46,50.37c-6.62,0-11.99,5.37-11.99,11.99 c0,6.62,5.37,11.99,11.99,11.99c6.62,0,11.99-5.37,11.99-11.99C56.44,55.74,51.08,50.37,44.46,50.37L44.46,50.37z M44.46,57.75 c-2.54,0-4.61,2.06-4.61,4.61c0,2.54,2.06,4.61,4.61,4.61c2.54,0,4.61-2.06,4.61-4.61C49.06,59.81,47,57.75,44.46,57.75 L44.46,57.75z M102.06,50.37c-6.62,0-11.99,5.37-11.99,11.99c0,6.62,5.37,11.99,11.99,11.99s11.99-5.37,11.99-11.99 C114.05,55.74,108.68,50.37,102.06,50.37L102.06,50.37z M102.06,57.75c-2.54,0-4.61,2.06-4.61,4.61c0,2.54,2.06,4.61,4.61,4.61 s4.61-2.06,4.61-4.61C106.67,59.81,104.61,57.75,102.06,57.75L102.06,57.75z M89.79,23.81l-8.93-0.1V35.2h14.97L89.79,23.81 L89.79,23.81z" />
    </symbol>

    <symbol id="Lock" viewBox="0 0 96.108 122.88">
        <path
            fill-rule="evenodd"
            clip-rule="evenodd"
            d="M2.892,56.036h8.959v-1.075V37.117c0-10.205,4.177-19.484,10.898-26.207v-0.009 C29.473,4.177,38.754,0,48.966,0C59.17,0,68.449,4.177,75.173,10.901l0.01,0.009c6.721,6.723,10.898,16.002,10.898,26.207v17.844 v1.075h7.136c1.59,0,2.892,1.302,2.892,2.891v61.062c0,1.589-1.302,2.891-2.892,2.891H2.892c-1.59,0-2.892-1.302-2.892-2.891 V58.927C0,57.338,1.302,56.036,2.892,56.036L2.892,56.036z M26.271,56.036h45.387v-1.075V36.911c0-6.24-2.554-11.917-6.662-16.03 l-0.005,0.004c-4.111-4.114-9.787-6.669-16.025-6.669c-6.241,0-11.917,2.554-16.033,6.665c-4.109,4.113-6.662,9.79-6.662,16.03 v18.051V56.036L26.271,56.036z M49.149,89.448l4.581,21.139l-12.557,0.053l3.685-21.423c-3.431-1.1-5.918-4.315-5.918-8.111 c0-4.701,3.81-8.511,8.513-8.511c4.698,0,8.511,3.81,8.511,8.511C55.964,85.226,53.036,88.663,49.149,89.448L49.149,89.448z" />
    </symbol>

    <symbol id="Customer-Service" viewBox="0 0 113.98 122.88">
        <path
            class="st0"
            d="M79.21,84.71c-0.84-0.76-1.98-1.74-3.18-2.78c-2.61-2.24-5.51-4.73-6.86-6.42l-0.13,0.09 c-2.76,1.89-6.17,3.15-10.83,3.14c-4.35-0.01-7.62-1.22-10.31-3.01c-0.66-0.44-1.27-0.91-1.86-1.4c-1.33,1.74-4.59,4.51-7.49,6.97 c-1.77,1.5-3.4,2.88-4.26,3.72c-3,3.75-5.65,7.75-7.88,12.22l9.23-0.23l21.23,18.46l21.23-18.46l9.23,0.23 C85.05,92.64,82.32,88.55,79.21,84.71L79.21,84.71z M40.79,65.37c2.56,1.66,5.38,2.99,8.46,3.97c0.31-0.7,0.74-1.32,1.36-1.8 c1.86-1.44,7.31-1.3,8.99,0.09c1.41,1.17,1.43,3.85,0.39,5.25c-1.8,2.42-8.34,1.14-12.25,0.08c0.59,0.51,1.21,0.99,1.86,1.43 c2.26,1.51,5,2.53,8.62,2.53c3.92,0.01,6.79-1.05,9.12-2.64c0.43-0.3,0.85-0.61,1.26-0.95c0.13-0.22,0.33-0.4,0.58-0.5 c1.6-1.42,2.99-3.08,4.37-4.74l2.46-2.95c0.3-0.36,0.4-0.48,0.51-0.61c0.3-0.35,0.64-0.75,0.97-1.16c0.09-0.11,0.21-0.21,0.35-0.28 c0.4-1.3,0.7-2.66,0.91-4.09c0.7-4.67,0.72-8.3-1.38-12.6c-1.82-3.71-4.38-5.64-7.17-7.02c3.01,3.36,5.5,6.62,4.85,9.3 c-3.68-4.04-7.47-7.57-11.4-10.48c-8.21-4.24-13.04-9.99-15.19-16.95C36.29,33.4,34.17,47.62,38.68,63.09 c0.16,0.07,0.3,0.17,0.4,0.29L40.79,65.37L40.79,65.37z M42.86,71.17c-3.04-1.52-5.9-3.76-8.6-5.99l-4.94,0.13 c-0.68-0.78-1.25-1.68-1.73-2.69c-0.39-0.04-0.78-0.12-1.16-0.24c-4.75-1.49-8.69-12.05-7.91-17.03c0.44-2.82,1.44-3.84,3.06-4.46 c-0.08-0.23-0.12-0.47-0.12-0.73V29.53c0-4,1.2-7.93,3.15-11.49c2.13-3.91,5.17-7.4,8.49-10.04c6.78-5.41,15.56-8.09,24.29-8 c8.66,0.09,17.3,2.92,23.91,8.53c3.19,2.71,5.88,6.26,7.76,10.18c1.83,3.82,2.89,8,2.89,12.11v8.78c0,1.25-1.01,2.26-2.26,2.26 c-0.72,0-1.36-0.33-1.77-0.86c1.11,8.34,0.07,16.92-3.26,24.04h-5.63c-0.13,0.15-0.25,0.3-0.37,0.44l-0.5,0.59l-2.46,2.95 c-1.43,1.72-2.88,3.45-4.59,4.96c0.9,1.18,3.9,3.75,6.56,6.04c0.86,0.74,1.7,1.46,2.43,2.1c7.29,2.84,14.41,5.75,19.94,9.21 c4.27,2.67,6.47,4.69,8.2,7.93c2.73,5.12,4.88,10.8,5.52,17.54c0.57,6.03,0.52,5.76-5.27,5.88c-30.52,0.61-73.02-0.51-102.88,0 c-5.43,0.09-5.99,0.48-5.42-7.25c1.85-8.77,0.8-7.61,5.37-16.17c1.73-3.24,3.93-5.25,8.2-7.93c5.56-3.49,12.72-6.41,20.06-9.26 c0.9-0.8,1.99-1.73,3.14-2.71c3.2-2.72,6.87-5.83,7.28-6.75C43.76,72.15,43.3,71.67,42.86,71.17L42.86,71.17z M87.42,38.05v-7.22 c0-3.44-0.89-6.96-2.43-10.17c-1.6-3.35-3.9-6.37-6.61-8.68C72.59,7.06,64.99,4.58,57.34,4.5c-7.74-0.08-15.5,2.28-21.45,7.03 c-2.88,2.3-5.51,5.3-7.34,8.67c-1.6,2.93-2.58,6.12-2.58,9.34v9.09c2.45-11.79,7.45-20.38,15.22-25.51 c5.72-3.78,9.13-3.99,15.8-3.99c5.83,0,9.4-0.13,14.37,3.14C79.94,17.91,85.38,27.63,87.42,38.05L87.42,38.05z M49.73,104.51 l4.21-14.6l-2.06-2.26c-0.93-1.36-1.13-2.54-0.62-3.56c1.12-2.21,3.43-1.8,5.59-1.8c2.26,0,5.05-0.43,5.76,2.4 c0.24,0.95-0.06,1.94-0.72,2.96l-2.06,2.26l4.21,14.6l-7.15,5.65L49.73,104.51L49.73,104.51z" />
    </symbol>

    <symbol id="Percentage" viewBox="0 0 122.88 97.97">
        <path
            fill-rule="evenodd"
            clip-rule="evenodd"
            d="M26.24,0c35.34,0,35.34,56.21,0,56.21C-8.75,56.21-8.75,0,26.24,0L26.24,0z M43.98,96.06H26.78L78.63,1.91h17.19 L43.98,96.06L43.98,96.06z M26.24,14.87c-1.73,0-4.67,0.68-5.08,2.05c-0.41,1.36-0.61,5.09-0.61,11.19c0,6.19,0.21,9.94,0.61,11.26 c0.41,1.32,3.35,1.98,5.08,1.98c1.82,0,4.83-0.68,5.28-2.05c0.45-1.36,0.68-5.09,0.68-11.19c0-6.09-0.23-9.83-0.68-11.19 C31.07,15.56,28.06,14.87,26.24,14.87L26.24,14.87z M96.37,41.75c35.34,0,35.34,56.21,0,56.21C61.39,97.97,61.39,41.75,96.37,41.75 L96.37,41.75z M96.37,56.62c-1.73,0-4.67,0.66-5.08,1.98c-0.41,1.32-0.61,5.07-0.61,11.26c0,6.09,0.21,9.83,0.61,11.19 c0.41,1.36,3.35,2.05,5.08,2.05c1.82,0,4.83-0.68,5.28-2.05c0.97-2.91,0.97-19.47,0-22.38C101.2,57.31,98.19,56.62,96.37,56.62 L96.37,56.62z" />
    </symbol>

    <symbol id="Facebook" viewBox="0 0 24 24">
        <path
            fill="currentColor"
            d="M9 8h-3v4h3v12h5v-12h3.642l.358-4h-4v-1.667c0-.955.192-1.333 1.115-1.333h2.885v-5h-3.808c-3.596 0-5.192 1.583-5.192 4.615v3.385z" />
    </symbol>

    <symbol id="Instagram" viewBox="0 0 24 24">
        <path
            fill="currentColor"
            d="M12 2.163c3.204 0 3.584.012 4.85.07 3.252.148 4.771 1.691 4.919 4.919.058 1.265.069 1.645.069 4.849 0 3.205-.012 3.584-.069 4.849-.149 3.225-1.664 4.771-4.919 4.919-1.266.058-1.644.07-4.85.07-3.204 0-3.584-.012-4.849-.07-3.26-.149-4.771-1.699-4.919-4.92-.058-1.265-.07-1.644-.07-4.849 0-3.204.013-3.583.07-4.849.149-3.227 1.664-4.771 4.919-4.919 1.266-.057 1.645-.069 4.849-.069zm0-2.163c-3.259 0-3.667.014-4.947.072-4.358.2-6.78 2.618-6.98 6.98-.059 1.281-.073 1.689-.073 4.948 0 3.259.014 3.668.072 4.948.2 4.358 2.618 6.78 6.98 6.98 1.281.058 1.689.072 4.948.072 3.259 0 3.668-.014 4.948-.072 4.354-.2 6.782-2.618 6.979-6.98.059-1.28.073-1.689.073-4.948 0-3.259-.014-3.667-.072-4.947-.196-4.354-2.617-6.78-6.979-6.98-1.281-.059-1.69-.073-4.949-.073zm0 5.838c-3.403 0-6.162 2.759-6.162 6.162s2.759 6.163 6.162 6.163 6.162-2.759 6.162-6.163c0-3.403-2.759-6.162-6.162-6.162zm0 10.162c-2.209 0-4-1.79-4-4 0-2.209 1.791-4 4-4s4 1.791 4 4c0 2.21-1.791 4-4 4zm6.406-11.845c-.796 0-1.441.645-1.441 1.44s.645 1.44 1.441 1.44c.795 0 1.439-.645 1.439-1.44s-.644-1.44-1.439-1.44z" />
    </symbol>

    <symbol id="Whatsapp" viewBox="0 0 24 24">
        <path
            fill="currentColor"
            d="M.057 24l1.687-6.163c-1.041-1.804-1.588-3.849-1.587-5.946.003-6.556 5.338-11.891 11.893-11.891 3.181.001 6.167 1.24 8.413 3.488 2.245 2.248 3.481 5.236 3.48 8.414-.003 6.557-5.338 11.892-11.893 11.892-1.99-.001-3.951-.5-5.688-1.448l-6.305 1.654zm6.597-3.807c1.676.995 3.276 1.591 5.392 1.592 5.448 0 9.886-4.434 9.889-9.885.002-5.462-4.415-9.89-9.881-9.892-5.452 0-9.887 4.434-9.889 9.884-.001 2.225.651 3.891 1.746 5.634l-.999 3.648 3.742-.981zm11.387-5.464c-.074-.124-.272-.198-.57-.347-.297-.149-1.758-.868-2.031-.967-.272-.099-.47-.149-.669.149-.198.297-.768.967-.941 1.165-.173.198-.347.223-.644.074-.297-.149-1.255-.462-2.39-1.475-.883-.788-1.48-1.761-1.653-2.059-.173-.297-.018-.458.13-.606.134-.133.297-.347.446-.521.151-.172.2-.296.3-.495.099-.198.05-.372-.025-.521-.075-.148-.669-1.611-.916-2.206-.242-.579-.487-.501-.669-.51l-.57-.01c-.198 0-.52.074-.792.372s-1.04 1.016-1.04 2.479 1.065 2.876 1.213 3.074c.149.198 2.095 3.2 5.076 4.487.709.306 1.263.489 1.694.626.712.226 1.36.194 1.872.118.571-.085 1.758-.719 2.006-1.413.248-.695.248-1.29.173-1.414z" />
    </symbol>

    <symbol id="User" viewBox="0 0 122.88 121.42">
        <path
            fill-rule="evenodd"
            clip-rule="evenodd"
            d="M0,121.42l0-19.63c10.5-4.67,42.65-13.56,44.16-26.41c0.34-2.9-6.5-13.96-8.07-19.26 c-3.36-5.35-4.56-13.85-0.89-19.5c1.46-2.25,0.84-10.44,0.84-13.53c0-30.77,53.92-30.78,53.92,0c0,3.89-0.9,11.04,1.22,14.1 c3.54,5.12,1.71,14.19-1.27,18.93c-1.91,5.57-9.18,16.11-8.56,19.26c2.31,11.74,32.13,19.63,41.52,23.8l0,22.23L0,121.42L0,121.42z" />
    </symbol>

    <symbol id="Exit" viewBox="0 0 81.83 122.88">
        <path
            fill-rule="evenodd"
            clip-rule="evenodd"
            d="M59.88,0,2.9,8.54A3.65,3.65,0,0,0,0,12V112.48c0,1.63,1.29,2.25,2.9,2.48l57,7.9c1.6.22,2.89-1.86,2.89-3.51V2.5A2.43,2.43,0,0,0,59.88,0Zm9,115.44a2.43,2.43,0,1,1,0-4.86H76.5a.5.5,0,0,0,.33-.14.47.47,0,0,0,.13-.33V12.56a.49.49,0,0,0-.13-.33.51.51,0,0,0-.33-.13H68.92a2.44,2.44,0,1,1,0-4.87H76.5a5.36,5.36,0,0,1,5.33,5.33v97.58a5.34,5.34,0,0,1-5.33,5.33ZM55.33,53.9l-4.76-1.36v17.8l4.76-1.72V53.9Z" />
    </symbol>

    <symbol id="TrashCan" viewBox="0 0 109.484 122.88">
        <path
            fill-rule="evenodd"
            clip-rule="evenodd"
            d="M2.347,9.633h38.297V3.76c0-2.068,1.689-3.76,3.76-3.76h21.144 c2.07,0,3.76,1.691,3.76,3.76v5.874h37.83c1.293,0,2.347,1.057,2.347,2.349v11.514H0V11.982C0,10.69,1.055,9.633,2.347,9.633 L2.347,9.633z M8.69,29.605h92.921c1.937,0,3.696,1.599,3.521,3.524l-7.864,86.229c-0.174,1.926-1.59,3.521-3.523,3.521h-77.3 c-1.934,0-3.352-1.592-3.524-3.521L5.166,33.129C4.994,31.197,6.751,29.605,8.69,29.605L8.69,29.605z M69.077,42.998h9.866v65.314 h-9.866V42.998L69.077,42.998z M30.072,42.998h9.867v65.314h-9.867V42.998L30.072,42.998z M49.572,42.998h9.869v65.314h-9.869 V42.998L49.572,42.998z" />
    </symbol>

    <symbol id="FourBox" viewBox="0 0 24 24" fill="none" stroke="currentColor" stroke-width="3">
        <path
            stroke-linecap="round"
            stroke-linejoin="round"
            d="M3.75 6A2.25 2.25 0 016 3.75h2.25A2.25 2.25 0 0110.5 6v2.25a2.25 2.25 0 01-2.25 2.25H6a2.25 2.25 0 01-2.25-2.25V6zM3.75 15.75A2.25 2.25 0 016 13.5h2.25a2.25 2.25 0 012.25 2.25V18a2.25 2.25 0 01-2.25 2.25H6A2.25 2.25 0 013.75 18v-2.25zM13.5 6a2.25 2.25 0 012.25-2.25H18A2.25 2.25 0 0120.25 6v2.25A2.25 2.25 0 0118 10.5h-2.25a2.25 2.25 0 01-2.25-2.25V6zM13.5 15.75a2.25 2.25 0 012.25-2.25H18a2.25 2.25 0 012.25 2.25V18A2.25 2.25 0 0118 20.25h-2.25A2.25 2.25 0 0113.5 18v-2.25z"
        />
    </symbol>

    <symbol id="SearchProduct" viewBox="0 0 121.7 122.881" stroke="currentColor">
        <path
            fill-rule="evenodd"
            clip-rule="evenodd"
            d="M80.833,29.638c0.309-0.061,0.63-0.002,0.896,0.161c0.455,0.188,0.776,0.635,0.778,1.158l0.264,36.584 c0.021,0.449-0.198,0.895-0.611,1.141l-14.941,8.912c-0.211,0.16-0.475,0.254-0.759,0.254c-0.069,0-0.138-0.004-0.204-0.016 l-38.773-4.311c-0.667-0.033-1.198-0.586-1.198-1.262V35.057h0.002c-0.015-0.498,0.268-0.979,0.752-1.191l19.45-8.55l0.001,0.002 c0.203-0.09,0.433-0.126,0.669-0.096L80.833,29.638L80.833,29.638L80.833,29.638z M53.613,0c14.789,0,28.202,6.018,37.918,15.694 c9.716,9.716,15.694,23.089,15.694,37.918c0,10.817-3.226,20.927-8.732,29.343l23.207,25.293l-16.009,14.633L83.311,98.258 c-8.497,5.664-18.724,8.967-29.697,8.967c-14.79,0-28.203-6.018-37.918-15.693C5.979,81.814,0,68.441,0,53.612 c0-14.79,6.019-28.202,15.695-37.918C25.41,5.979,38.784,0,53.613,0L53.613,0z M87.283,19.942 c-8.614-8.614-20.532-13.964-33.67-13.964s-25.056,5.35-33.67,13.964S5.979,40.475,5.979,53.612 c0,13.138,5.349,25.056,13.963,33.671c8.614,8.613,20.533,13.963,33.67,13.963s25.056-5.35,33.67-13.963 c8.614-8.615,13.964-20.533,13.964-33.671C101.247,40.475,95.897,28.557,87.283,19.942L87.283,19.942L87.283,19.942z M68.174,40.325v33.136l11.626-6.57l-0.244-33.406L68.174,40.325L68.174,40.325L68.174,40.325z M64.293,73.824V40.677l-15.63-1.657 l-0.542,15.802l-5.806-3.954l-5.806,3.281l1.198-16.528l-7.994-1.135V70.23L64.293,73.824L64.293,73.824L64.293,73.824z M62.583,29.782L50.84,36.253l15.863,2.024l10.666-6.556L62.583,29.782L62.583,29.782L62.583,29.782z M39.712,34.833l11.373-6.559 l-3.899-0.511l-14.592,6.161L39.712,34.833L39.712,34.833z" />
    </symbol>

    <symbol id="SearchUser" viewBox="0 0 121.699 122.879" stroke="currentColor">
        <path
            fill-rule="evenodd"
            clip-rule="evenodd"
            d="M53.613,0c14.79,0,28.202,6.018,37.918,15.694c9.715,9.716,15.693,23.089,15.693,37.918 c0,10.817-3.225,20.926-8.732,29.343l23.207,25.292l-16.008,14.632L83.311,98.256c-8.498,5.664-18.725,8.969-29.698,8.969 c-14.79,0-28.203-6.019-37.918-15.694C5.979,81.814,0,68.44,0,53.612c0-14.79,6.018-28.202,15.695-37.918 C25.41,5.979,38.784,0,53.613,0L53.613,0z M37.534,33.9c7.813-8.622,16.834-13.305,23.597-5.639 c1.773,0.084,3.359,0.671,4.684,1.921c2.781,2.615,3.213,7.508,1.941,11.394v3.392c0.861,0.567,1.418,1.628,1.67,2.835 c0.168,0.777,0.211,1.638,0.125,2.457c-0.082,0.851-0.293,1.659-0.629,2.332c-0.482,0.956-1.219,1.627-2.215,1.774 c-0.979,1.04-1.934,2.153-2.783,3.224c-0.936,1.176-1.734,2.289-2.289,3.203c-0.432,0.704-0.295,1.166-0.137,1.691 c0.072,0.262,0.156,0.535,0.209,0.829c1.713,0.367,3.256,0.661,4.643,0.924c8.811,1.648,14.01,2.163,14.01,13.631 c0,0.588-0.473,1.061-1.061,1.061H30.697c-0.588,0-1.061-0.473-1.061-1.061c0-11.468,5.189-11.982,14.01-13.631 c1.397-0.263,2.961-0.557,4.673-0.924c0.063-0.231,0.137-0.441,0.21-0.651c0.178-0.504,0.357-1.008-0.168-1.858 c-0.557-0.914-1.355-2.026-2.289-3.203c-0.851-1.071-1.807-2.184-2.783-3.224c-0.998-0.146-1.733-0.819-2.216-1.774 c-0.336-0.662-0.546-1.481-0.63-2.331c-0.074-0.819-0.032-1.68,0.126-2.458c0.252-1.208,0.798-2.258,1.648-2.825l-1.145-0.683 c-0.304-3.392,0.588-9.283-3.55-10.396L37.534,33.9L37.534,33.9z M87.283,19.942C78.668,11.328,66.75,5.979,53.613,5.979 c-13.138,0-25.056,5.35-33.67,13.963c-8.614,8.614-13.964,20.532-13.964,33.67c0,13.138,5.35,25.056,13.964,33.67 c8.614,8.614,20.532,13.964,33.67,13.964c13.137,0,25.055-5.35,33.67-13.964c8.613-8.614,13.963-20.532,13.963-33.67 C101.246,40.474,95.896,28.556,87.283,19.942L87.283,19.942L87.283,19.942z" />
    </symbol>

    <symbol id="Home" viewBox="0 0 122.88 112.07" stroke="currentColor" stroke-width="1.5">
        <path
            fill-rule="evenodd"
            clip-rule="evenodd"
            d="M61.44,0L0,60.18l14.99,7.87L61.04,19.7l46.85,48.36l14.99-7.87L61.44,0L61.44,0z M18.26,69.63L18.26,69.63 L61.5,26.38l43.11,43.25h0v0v42.43H73.12V82.09H49.49v29.97H18.26V69.63L18.26,69.63L18.26,69.63z" />
    </symbol>

    <symbol id="Ecommerce" viewBox="0 0 119.83 122.88">
        <path
            fill-rule="evenodd"
            clip-rule="evenodd"
            d="M20.57,0h79.69c1.87,0,3.39,1.53,3.39,3.4s-1.53,3.4-3.39,3.4l-79.69,0c-1.87,0-3.39-1.53-3.39-3.4 C17.17,1.53,18.7,0,20.57,0L20.57,0z M118.58,43.17v4.1c0.04,0.39,0.06,0.78,0.06,1.17c0,6.88-6.43,12.46-14.36,12.46 c-7.93,0-14.36-5.58-14.36-12.46c0-0.29,0.01-0.59,0.03-0.88l-0.57,0c0.02,0.29,0.03,0.58,0.03,0.88c0,6.88-6.43,12.46-14.36,12.46 c-7.93,0-14.36-5.58-14.36-12.46c0-0.29,0.01-0.59,0.03-0.88h-0.57c0.02,0.29,0.03,0.58,0.03,0.88c0,6.88-6.43,12.46-14.36,12.46 c-7.93,0-14.36-5.58-14.36-12.46c0-0.29,0.01-0.59,0.03-0.88h-0.36c0.02,0.29,0.03,0.58,0.03,0.88c0,6.88-6.43,12.46-14.36,12.46 c-7.93,0-14.36-5.58-14.36-12.46c0-0.34,0.02-0.67,0.05-1v-4.27L118.58,43.17L118.58,43.17z M16.84,10.44h87.64l11.17,23.85H5.26 L16.84,10.44L16.84,10.44z M3.39,108.01h12.12v-38.3c0.2,0.01,0.4,0.02,0.6,0.02l0.05,0l0.23,0h0.04l0.03,0h0.16l0.03,0h0.14v0.03 h0.01v-0.03c5.48,0,10.55-1.75,14.5-4.65l0.03,0.02l0.03,0.02l0.03,0.02l0.03,0.02l0.03,0.02l0.03,0.02l0.01,0.01l0.02,0.01 l0.03,0.02l0.03,0.02l0.03,0.02l0.01,0l0.1,0.07l0,0l0.03,0.02l0.01,0.01l0.05,0.03l0.03,0.02l0.03,0.02l0.01,0.01l0.02,0.01 l0.03,0.02l0.03,0.02l0.03,0.02L32,65.59l0.03,0.02l0.02,0.02l0,0l0.03,0.02l0.03,0.02l0.03,0.02l0.03,0.02l0.03,0.02l0.03,0.02 l0.01,0l0.23,0.15l0.03,0.02l0.03,0.02l0.18,0.12l0.03,0.02l0.22,0.13L33,66.22l0.03,0.02l0.03,0.02l0.03,0.02l0.03,0.02l0.03,0.02 l0.03,0.02l0.03,0.02v25.1l53.38,0V66.93c0.86-0.45,1.7-0.96,2.49-1.51l0.02-0.02l0.01,0l0.16-0.11l0.01-0.01l0.05-0.03l0.05-0.03 l0,0l0.08-0.06l0.01,0l0.01-0.01l0.17-0.12c3.97,2.95,9.08,4.73,14.61,4.73v0.03l0.01,0v-0.03h0.03v38.27h12.12 c1.87,0,3.4,3.34,3.4,7.43c0,4.09-1.53,7.43-3.4,7.43H3.39c-1.86,0-3.39-3.34-3.39-7.43C0,111.36,1.53,108.01,3.39,108.01 L3.39,108.01z" />
    </symbol>

    <symbol id="Pencil" viewBox="0 0 121.48 122.88">
        <path
            fill="currentColor"
            d="M96.84,2.22l22.42,22.42c2.96,2.96,2.96,7.8,0,10.76l-12.4,12.4L73.68,14.62l12.4-12.4 C89.04-0.74,93.88-0.74,96.84,2.22L96.84,2.22z M70.18,52.19L70.18,52.19l0,0.01c0.92,0.92,1.38,2.14,1.38,3.34 c0,1.2-0.46,2.41-1.38,3.34v0.01l-0.01,0.01L40.09,88.99l0,0h-0.01c-0.26,0.26-0.55,0.48-0.84,0.67h-0.01 c-0.3,0.19-0.61,0.34-0.93,0.45c-1.66,0.58-3.59,0.2-4.91-1.12h-0.01l0,0v-0.01c-0.26-0.26-0.48-0.55-0.67-0.84v-0.01 c-0.19-0.3-0.34-0.61-0.45-0.93c-0.58-1.66-0.2-3.59,1.11-4.91v-0.01l30.09-30.09l0,0h0.01c0.92-0.92,2.14-1.38,3.34-1.38 c1.2,0,2.41,0.46,3.34,1.38L70.18,52.19L70.18,52.19L70.18,52.19z M45.48,109.11c-8.98,2.78-17.95,5.55-26.93,8.33 C-2.55,123.97-2.46,128.32,3.3,108l9.07-32v0l-0.03-0.03L67.4,20.9l33.18,33.18l-55.07,55.07L45.48,109.11L45.48,109.11z M18.03,81.66l21.79,21.79c-5.9,1.82-11.8,3.64-17.69,5.45c-13.86,4.27-13.8,7.13-10.03-6.22L18.03,81.66L18.03,81.66z" />
    </symbol>

    <symbol id="Warning" viewBox="0 0 24 24">
        <path fill="currentColor"
            d="M12 2C6.48 2 2 6.48 2 12s4.48 10 10 10 10-4.48 10-10S17.52 2 12 2zm0 14a1.5 1.5 0 110 3 1.5 1.5 0 010-3zm-1-9h2v6h-2V7z" />
    </symbol>

    <symbol id="Plus" viewBox="0 0 122.875 122.648">
        <path
            fill="currentColor"
            d="M108.993,47.079c7.683-0.059,13.898,6.12,13.882,13.805 c-0.018,7.683-6.26,13.959-13.942,14.019L75.24,75.138l-0.235,33.73c-0.063,7.619-6.338,13.789-14.014,13.78 c-7.678-0.01-13.848-6.197-13.785-13.818l0.233-33.497l-33.558,0.235C6.2,75.628-0.016,69.448,0,61.764 c0.018-7.683,6.261-13.959,13.943-14.018l33.692-0.236l0.236-33.73C47.935,6.161,54.209-0.009,61.885,0 c7.678,0.009,13.848,6.197,13.784,13.818l-0.233,33.497L108.993,47.079L108.993,47.079z" />
    </symbol>


</svg>